<?xml version="1.0" encoding="utf-8"?>
<!-- Generator: Adobe Illustrator 16.0.0, SVG Export Plug-In . SVG Version: 6.00 Build 0)  -->
<!DOCTYPE svg PUBLIC "-//W3C//DTD SVG 1.1//EN" "http://www.w3.org/Graphics/SVG/1.1/DTD/svg11.dtd">
<svg version="1.1" id="Layer_1" xmlns="http://www.w3.org/2000/svg" xmlns:xlink="http://www.w3.org/1999/xlink" x="0px" y="0px"
	 width="635px" height="356px" viewBox="0 0 635 356" enable-background="new 0 0 635 356" xml:space="preserve">
<g>
	<path pointer-events="none" fill="#11CA30" d="M135,123v-1V123z"/>
</g>
<g>
	<path pointer-events="none" fill="#C1FF85" d="M134,119L134,119z"/>
</g>
<g>
	<path pointer-events="none" fill="#7CACD5" d="M135,119l-1-1L135,119z"/>
</g>
<g>
	<path pointer-events="none" fill="#0B9CCD" d="M121,130v1V130z"/>
</g>
<g>
	<path pointer-events="none" fill="#17976A" d="M128,142l-3-3h2l2,2L128,142z"/>
</g>
<g>
	<path pointer-events="none" fill="#38A29B" d="M151,89h2l-1,1l-1-2V89z"/>
</g>
<g>
	<path pointer-events="none" fill="#5A9E73" d="M154,84l-4-1l1-1L154,84z"/>
</g>
<g>
	<path pointer-events="none" fill="#733982" d="M79,85h-2l-4-4l6,3V85z"/>
</g>
<g>
	<path pointer-events="none" fill="#A70831" d="M161,81l-1,2l1-1l1,2h2v4l-7-1l2-6l2-1V81z"/>
</g>
<g>
	<path pointer-events="none" fill="#B2642D" d="M68,74l2,4l-3-3L68,74z"/>
</g>
<g>
	<path pointer-events="none" fill="#DDAB42" d="M133,56l-1,1v-2L133,56z"/>
</g>
<g>
	<path pointer-events="none" fill="#FDDB40" d="M129,54l-1,2l-1-1L129,54z"/>
</g>
<g>
	<path pointer-events="none" fill="#57A62F" d="M125,46l7,6h-9L125,46z"/>
</g>
<g>
	<path pointer-events="none" fill="#7F6F24" d="M137,42h-2l2-4v3V42z"/>
</g>
<g>
	<path pointer-events="none" fill="#D21810" d="M113,35l-1,2l-4-3l2-2l2,2L113,35z"/>
</g>
<g>
	<path pointer-events="none" fill="#D79239" d="M119,34v3l2-2l2,7l2-9h4l1,9l-6,3l-1,4l-4,3v2h-2l-3,10h2l1,4h4l3,3l4,1l4,8v-7l4-4
		l-2-5v-9h5l3,2l2,2l1,5l2,1l3-3v-2l4,10l7,6v2l-5,4l-9,1l-5,5l8-4v4l2,2h2l1-2v3l-6,3l-1-2l3-1h-4l-2-4l-3,4h-4l-9,6v-5l-6-6l-10-2
		H80l-6-3l-7-16l-3-3l-2,2l-4-4V33l6,3l10-5l2,3l2-2v2l4-1l9,5l-2,1h7l1,2v-3l3-2l2,3l4,1h2l2-3l2,1v3l3-6l-3-3l1-7l3,2l2,5l-1,1
		L119,34z"/>
</g>
<g>
	<path pointer-events="none" fill="#36FC2E" d="M90,20v2l3-1l1,2l2-2l2,5l-1-6l4,2l1,7l4,3v2h-2l1,3l-5-2l-8,2l-3-2l-2-3l6-1l-7-1
		l-1-1l3-2h-4l2-5l3-2H90z"/>
</g>
<g>
	<path pointer-events="none" fill="#8D5EBA" d="M102,19l-1,3l-2-3l2-1L102,19z"/>
</g>
<g>
	<path pointer-events="none" fill="#762AE9" d="M136,20v2h-4l-1-3l3-1L136,20z"/>
</g>
<g>
	<path pointer-events="none" fill="#A3CEAF" d="M124,20l1,3l1-4l3-1l2,7l3-3l11,8l2,5l-2,2l5,2l4,4l-3,5l-3-4h-2l4,9l-2,1l-3-2l3,4
		l-7-3l1-1l-4-3h-5l1-2h5l2-6l-5-5l-1-3l-15-3V20l5-3L124,20z"/>
</g>
<g>
	<path pointer-events="none" fill="#165EE9" d="M107,17l4,1l-1,3l2,2v3l-2,2l-5-5l2-1l-1-3L107,17z"/>
</g>
<g>
	<path pointer-events="none" fill="#F220C6" d="M116,22l-2,3l-2-4l2-5l5,1l-2,4L116,22z"/>
</g>
<g>
	<path pointer-events="none" fill="#931DF2" d="M83,27l-3,2l-4-4l3-7l-2-3l11,2l1,2l-5,4l-1,3V27z"/>
</g>
<g>
	<path pointer-events="none" fill="#76EA8F" d="M115,12v2l-4-2l3-3l1,2V12z"/>
</g>
<g>
	<path pointer-events="none" fill="#7DBF41" d="M109,4l1,8l-2,1l-1-4h-2l-1-3L109,4z"/>
</g>
<g>
	<path pointer-events="none" fill="#A76009" d="M98,6v2l1-1l2,3l-1,2l-7,3h-2l2-4h-7l3-6l8,5l-2-5l1-2l1,1L98,6z"/>
</g>
<g>
	<path pointer-events="none" fill="#2C7FBA" d="M114,2l4,1v4l3,2l3,1l4-2l4,2l-1,4l-9,1l-5-2l-2-7l-4-3l1-2L114,2z"/>
</g>
<g>
	<path pointer-events="none" fill="#DBF331" d="M88-1l-1,6l-5,3l-2-1l6-8H88z"/>
</g>
<g>
	<path pointer-events="none" fill="#80E060" d="M115-1h-3v-2L115-1z"/>
</g>
<g>
	<path pointer-events="none" fill="#385A0A" d="M95-2l-2,2l-2-2l1-2h4L95-2z"/>
</g>
<g>
	<path pointer-events="none" fill="#DF14CF" d="M96-7l-4,1l2-2L96-7z"/>
</g>
<g>
	<path pointer-events="none" fill="#56DD33" d="M113-4h-3l-1-5h2l2,3V-4z"/>
</g>
<g>
	<path pointer-events="none" fill="#CCA0DF" d="M108-5v2l-4-3h-3v-6l6,4L108-5z"/>
</g>
<g>
	<path pointer-events="none" fill="#90034E" d="M123-14l2,2l-4,7l-5-1v-6l-4-2v-7l2-4l3-1l1,5l4,3L123-14z"/>
</g>
<g>
	<path pointer-events="none" fill="#EE9747" d="M146-42l5,2l3,3v2l-7,7h2l-5,7l-2,6l-3,3h-4l2,1v4l-5,8l2,1l-3,4l-11-1l2-8l4,2l-4-5
		l4-6l-3-6l5,1l1-3h-6l-3-2l-2-9l5-3l2-4l3,3l2-6l6-2h7L146-42z"/>
</g>
<g>
	<path pointer-events="none" fill="#CF0084" d="M129,124h5l5,4h-5l1-1l-6-2l1-1l-3,1L129,124z"/>
</g>
<g>
	<path pointer-events="none" fill="#82330D" d="M172-37l4-6h4l2-4l4-1l10,2l7,8l-2,3l-11,2h5l3,3l3-3l1,4l-2,4l9-6l4,2l1,3l-6,7
		l-4,2h3l-2,5l1,14l-4,2l2,3l1,4h-2l2,4l-3,1l2,1l-2,3h-2l1,4l-2-2l-1,2l4,3v3l-2,1l-3-4l1,3l-2,1l4,1l-2,3l-18,12l-4,14l-6-2l-5-9
		l-2-8l4-9l-3,2l-2-1l1-5l3,1l-5-4l1-5l-4-11l-6-4l-6,1l-4-5l6-2l-5-1l-3-3v-2l9-6v-3l-3-2l1-3l6-6v-4l6-3h4l1,2l3-5l3,4h2l3,3l-3-4
		V-37z"/>
</g>
<g>
	<path pointer-events="none" fill="#23A0E1" d="M142,128l3,1l-3,2v-2V128z"/>
</g>
<g>
	<path pointer-events="none" fill="#472E94" d="M120,136l-3-1l2-3l-1-1l2-1v5V136z"/>
</g>
<g>
	<path pointer-events="none" fill="#340201" d="M123,136l-3-1l2-2l6,1L123,136z"/>
</g>
<g>
	<path pointer-events="none" fill="#ADAADF" d="M135,130h-1H135z"/>
</g>
<g>
	<path pointer-events="none" fill="#19ED0A" d="M140,128h2v2h-4h2V128z"/>
</g>
<g>
	<path pointer-events="none" fill="#3F0B76" d="M111,120l-1,4l4,6l5-1l1-3l3,1l-1,3h-4l1,3h-8l-8-3l-12-18l-1,3l4,4l2,4l-1,1l-6-7
		l1-1l-3-4l3-2l4,2h6L111,120z"/>
</g>
<g>
	<path pointer-events="none" fill="#938F16" d="M125,139l-2-2l3-3h2v3L125,139z"/>
</g>
<g>
	<path pointer-events="none" fill="#0225DB" d="M134,144l-1-3l-2,2l-3-1l5-1l2,1l-1,1V144z"/>
</g>
<g>
	<path pointer-events="none" fill="#BE5D12" d="M122,136h-2l2-1V136z"/>
</g>
<g>
	<path pointer-events="none" fill="#354F12" d="M148,130h-1H148z"/>
</g>
<g>
	<path pointer-events="none" fill="#F8FFC7" d="M154,139v1V139z"/>
</g>
<g>
	<path pointer-events="none" fill="#4E7F51" d="M41,129l-1-1L41,129z"/>
</g>
<g>
	<path pointer-events="none" fill="#E70E61" d="M40,127l-1-1L40,127z"/>
</g>
<g>
	<path pointer-events="none" fill="#A3A83F" d="M39,126h-1H39z"/>
</g>
<g>
	<path pointer-events="none" fill="#57530F" d="M38,126L38,126z"/>
</g>
<g>
	<path pointer-events="none" fill="#0D5315" d="M36,125L36,125z"/>
</g>
<g>
	<path pointer-events="none" fill="#6AAB76" d="M114,84l12,4l3,3v6l7-3l2-3h4l3-4l1,1l1,3l-4,4v2l1-1l-5,2h2h-2l-1,3l-1-1l1,1l-1,2
		l-1-1v5l-6,5l2,7l-1,2l-3-3l1-2l-2-2h-6l-2,2l-5-1l-3,3v2l-5-5l-2,1l-4-4l-12-1l-3-3h-2l-5-9V85l2,1v2v-4h33H114z"/>
</g>
<g>
	<path pointer-events="none" fill="#2BA51A" d="M44,68l-2,1l1-3l2,1L44,68z"/>
</g>
<g>
	<path pointer-events="none" fill="#510F9B" d="M28,61h-2l2-1V61z"/>
</g>
<g>
	<path pointer-events="none" fill="#2862A7" d="M21,51l4,2h-4V51z"/>
</g>
<g>
	<path pointer-events="none" fill="#F54533" d="M41,28l1,2l3-1l-1,1l2,1l2-1l2,2l7,1l1,27l4,4l2-2l7,9v2l-6-8l-14-6l-5,4v-4l-4,4
		l1,1l-2,3l-12,7l8-6l2-4h-6v-2l-4-2l-1-3l2-4l4-1v-2h-5l-4-4l5-3l1,2h2l-6-7l6-7l6-4L41,28z"/>
</g>
<g>
	<path pointer-events="none" fill="#B8D913" d="M149,233l-4-1v-5l5,5L149,233z"/>
</g>
<g>
	<path pointer-events="none" fill="#16BA50" d="M150,180l9,4v3h2l1-3l2,1l-6,7v5l2,3l-1,2l-5,1l-1,3l-2,1l-1-1l1,3l-4,5l2,5l-4,4
		l1,4l-5-1l-1-5l2-7l-1-8l3-10l-1-4l5-13L150,180z"/>
</g>
<g>
	<path pointer-events="none" fill="#4335E4" d="M152,180l-1,1l-3-2l-2,2v-5l-2-2v-8l4-2l11,10l-1,3l-4-1l-1,4H152z"/>
</g>
<g>
	<path pointer-events="none" fill="#CD912E" d="M145,227v5h2l-1,1h-2l-6-5l4,2L145,227z"/>
</g>
<g>
	<path pointer-events="none" fill="#6D13DF" d="M146,179l1,3l-4,10l1,3l-2,5l1,3l-2,3l1,8l-2,7l1,4l5,2h-2l-1,3l-4-2l-2-3v-5l2-3
		l-2-1l4-7l-1-1l-1,3v-10l3-5l2-22l2,2l-1,1L146,179z"/>
</g>
<g>
	<path pointer-events="none" fill="#959ACF" d="M159,191l5-5l-1-4h-2v-2h-3v-7l-3-2v-2l-6-3v-2l-5,2l-5-5l4-4l2-6l-1-1l5,1l3-2l-2-2
		l2,1l4-2l1,5l4-2l3,1l2-3l2,4l-1,1l7,2v2h6l6,4v3l-5,6v6l-3,5l-7,3l-1,5l-2,1l-4,7v-2l-4-4L159,191z"/>
</g>
<g>
	<path pointer-events="none" fill="#82F541" d="M137,152l-4-2l2-2l-1-5l8-6l-2,3l1,4l6,1l-1,4l2,2l-4-1v7l-6-5H137z"/>
</g>
<g>
	<path pointer-events="none" fill="#E219C5" d="M154,226l4-2l1,1l-4,2L154,226z"/>
</g>
<g>
	<path pointer-events="none" fill="#E09313" d="M131,156l2-5l4,2l-4,5l-2-1V156z"/>
</g>
<g>
	<path pointer-events="none" fill="#F9D342" d="M156,142l3,3l-1,1l2,4h-4v-4l-2-1l1-2L156,142z"/>
</g>
<g>
	<path pointer-events="none" fill="#2905D9" d="M144,174l-1,1l-6-4l-7-13l1-2v2h2l4-4v-2l3,3l4,1l-4,3l-1,4l3,2l1-1l2,8L144,174z"/>
</g>
<g>
	<path pointer-events="none" fill="#462AD1" d="M153,180l1-4h2l2,1v3l5,2v2l-2,3h-2v-3l-4-2L153,180z"/>
</g>
<g>
	<path pointer-events="none" fill="#8B021D" d="M159,145h4v4l-3,1l-2-3l1-1V145z"/>
</g>
<g>
	<path pointer-events="none" fill="#8E71EE" d="M142,138v2l2-2l5,2l5-1l-1,1l3,2v2h-2l1,2l-3,2l-1-1l1,3l-4,1l-2-2l1-3l-6-2v-6H142z
		"/>
</g>
<g>
	<path pointer-events="none" fill="#656BE6" d="M159,191l1-1l4,4v2l-5,1l-1-5L159,191z"/>
</g>
<g>
	<path pointer-events="none" fill="#D305DC" d="M264,158l1-3L264,158z"/>
</g>
<g>
	<path pointer-events="none" fill="#C3392D" d="M248,159l2,3l5-1v5l2-1v2l-2,1l1,5l-2,1h-12l3-7l-2-7l1-1H248z"/>
</g>
<g>
	<path pointer-events="none" fill="#2C1564" d="M243,159l1-1L243,159z"/>
</g>
<g>
	<path pointer-events="none" fill="#08BBE7" d="M232,145l-2-1l-1-4l3-3v6V145z"/>
</g>
<g>
	<path pointer-events="none" fill="#19D4B2" d="M259,175l5,5l-10,6l-2-7h2v-4l5-1V175z"/>
</g>
<g>
	<path pointer-events="none" fill="#688042" d="M247,143h3l5-4l6,7h-9l-4,2v2l-2-2v-3L247,143z"/>
</g>
<g>
	<path pointer-events="none" fill="#14C0A9" d="M225,146l-5,1l-2-2v-5h6L225,146z"/>
</g>
<g>
	<path pointer-events="none" fill="#207320" d="M244,150h-4l-1-5l5-3l2-4l-1-1l2,3h-2l2,2l-1,5l2,2l-2,1H244z"/>
</g>
<g>
	<path pointer-events="none" fill="#21D532" d="M266,148l-3,7l2,6l-2,1l1,6l-3-2h-6v-4l-2-1l-4,1l-1-2h-5l5-4l4-10l12,1L266,148z"/>
</g>
<g>
	<path pointer-events="none" fill="#6F703C" d="M244,158l-2-1l4-2v-4h-2l6-3l1,1l-3,7L244,158z"/>
</g>
<g>
	<path pointer-events="none" fill="#214F6D" d="M225,141h-2l-1-3l3-3l4-1l2,4l-6,2V141z"/>
</g>
<g>
	<path pointer-events="none" fill="#2C856A" d="M280,137v2V137z"/>
</g>
<g>
	<path pointer-events="none" fill="#64B18C" d="M243,123l-10,6l-15-11v-2l9-5v-5l5-2h6l-1,6l3,4v6l2,2L243,123z"/>
</g>
<g>
	<path pointer-events="none" fill="#3205DD" d="M270,115l-1,3l-2-3l6,10h-15v-12h12V115z"/>
</g>
<g>
	<path pointer-events="none" fill="#5A2567" d="M279,137l-4-3l-3,1l3-5v2l5,5H279z"/>
</g>
<g>
	<path pointer-events="none" fill="#B4C28C" d="M274,134l3,1l2,4l6,4l-2,3l-4,2h-5l-6-6l4-7h2V134z"/>
</g>
<g>
	<path pointer-events="none" fill="#3D95A4" d="M242,157l-3-3l3-3v-2l4,2v4l-3,1L242,157z"/>
</g>
<g>
	<path pointer-events="none" fill="#99204B" d="M218,143l-4-3l-2,2l-2-3l2-2h5l2,4L218,143z"/>
</g>
<g>
	<path pointer-events="none" fill="#4E12AF" d="M230,145l-4,2l-2-2l1-6l4,1v5H230z"/>
</g>
<g>
	<path pointer-events="none" fill="#0C5B23" d="M208,136h3h-2H208z"/>
</g>
<g>
	<path pointer-events="none" fill="#1452FF" d="M210,139l-2-2h4l-1,1L210,139z"/>
</g>
<g>
	<path pointer-events="none" fill="#D9ED8E" d="M240,151l2-1L240,151z"/>
</g>
<g>
	<path pointer-events="none" fill="#110F57" d="M278,153l-2,4l-7-3l2-4l-2-3h9v2V153z"/>
</g>
<g>
	<path pointer-events="none" fill="#D0A765" d="M219,147l-5-3l2-2l3,4V147z"/>
</g>
<g>
	<path pointer-events="none" fill="#4441BF" d="M246,124l-6-3v-8l4-3l7,4l2-1l-1-1l2-2l4,2v16l-11-5L246,124z"/>
</g>
<g>
	<path pointer-events="none" fill="#AE4E49" d="M263,189l-1,2l-1-1l2-2V189z"/>
</g>
<g>
	<path pointer-events="none" fill="#F8E781" d="M288,167l1,4l-3,11l-4,2l-1-9L288,167z"/>
</g>
<g>
	<path pointer-events="none" fill="#1EC696" d="M222,106l3,1l2,3l-9,6v2h-2l-6,8h-2l2-6l7-6l-1-1l5-7H222z"/>
</g>
<g>
	<path pointer-events="none" fill="#B0F105" d="M214,134l8-1l-1-12l12,8v3l-10,4l-1,4h-4l-1-3l-3,1v-3V134z"/>
</g>
<g>
	<path pointer-events="none" fill="#239424" d="M270,166l2,1l5-2v7l-7,5l1,6l-3,1v2l-2-6l2-3v-4l-3-1v-2l3-1l3,4l-1-6V166z"/>
</g>
<g>
	<path pointer-events="none" fill="#3018A8" d="M214,134l-3-2l-3,1v-6l5-1l-1-2l2-4h4v-2l4,3v11L214,134z"/>
</g>
<g>
	<path pointer-events="none" fill="#E71D42" d="M270,166l1,6l-3-3v-5l2,1V166z"/>
</g>
<g>
	<path pointer-events="none" fill="#C9D12D" d="M248,188l-5-14h15l-4,1v4h-2v9h-3H248z"/>
</g>
<g>
	<path pointer-events="none" fill="#5F005D" d="M239,147h-4l-3-4l1-7l2-1l4,2l4-1l3,2l-2,4l-5,4V147z"/>
</g>
<g>
	<path pointer-events="none" fill="#6DCED1" d="M231,138l-2-4l4-2v-3l10-6l4,3v6l-2,1v4l-10-2l-4,2V138z"/>
</g>
<g>
	<path pointer-events="none" fill="#3F732A" d="M265,154l-2,2l1-2H265z"/>
</g>
<g>
	<path pointer-events="none" fill="#E84874" d="M218,118v2h-4v3l-2,1l1,2h-5h2l3-5l4-3H218z"/>
</g>
<g>
	<path pointer-events="none" fill="#4244F2" d="M269,141l-1-4l-2,4h-9l-2-5l2-3l1-8h15l2,5L269,141z"/>
</g>
<g>
	<path pointer-events="none" fill="#E62E1C" d="M269,141l-1,1l3,4l-3,2l-6-1l-4-5v-2l8,1l2-4L269,141z"/>
</g>
<g>
	<path pointer-events="none" fill="#313FFA" d="M208,136l-1-2l2-2h2l3,3v2h-6l3-1h-2H208z"/>
</g>
<g>
	<path pointer-events="none" fill="#278BAA" d="M287,141l-1,2l-5-2l-1-3l2,2l5-2v2V141z"/>
</g>
<g>
	<path pointer-events="none" fill="#EA0844" d="M214,144l-2-2l2-2l2,2l-1,2H214z"/>
</g>
<g>
	<path pointer-events="none" fill="#1C7B4B" d="M288,138h2l-1,5l-4,6l-7,5v-5l9-7L288,138z"/>
</g>
<g>
	<path pointer-events="none" fill="#DB87CF" d="M267,186h-2l2-1V186z"/>
</g>
<g>
	<path pointer-events="none" fill="#F70713" d="M246,137l-1-4l2-1v-9l10,5v5l-2,2l1,3l-2,3l-6,2l-3-3h2L246,137z"/>
</g>
<g>
	<path pointer-events="none" fill="#14C80A" d="M231,145h-2l-1-6l2,2v3L231,145z"/>
</g>
<g>
	<path pointer-events="none" fill="#6ABD84" d="M240,114l-3-6l1-4h4v6L240,114z"/>
</g>
<g>
	<path pointer-events="none" fill="#0E6E52" d="M269,153l7,5v8l-4,1l-7-5l-1-4l1-3l2-1L269,153z"/>
</g>
<g>
	<path pointer-events="none" fill="#A4BCF1" d="M267,154l-3-1l2-3l-1-1l4-2l2,3l-2,3L267,154z"/>
</g>
<g>
	<path pointer-events="none" fill="#206E6E" d="M266,189l-6,7l-9,1l-3-9h4v-5l2,3l12-6l1,4l-2,2l3,1l-1,2H266z M263,189l-2,1l1,1
		l2-2H263z"/>
</g>
<g>
	<path pointer-events="none" fill="#7B148D" d="M302,106l1,1l5-4l3,1l2-2l2,2h3l-4,2l1,1l-3,3v2l-4,1l-1,2h-5v-7V106z"/>
</g>
<g>
	<path pointer-events="none" fill="#81BD33" d="M266,180h-2l-5-5l5-4l3,1v6L266,180z"/>
</g>
<g>
	<path pointer-events="none" fill="#862191" d="M268,163l1,4l-8,7h-4l-2-2v-4h2v-2h4l2,2v-5h4H268z"/>
</g>
<g>
	<path pointer-events="none" fill="#0519B9" d="M291,122l5-2l-1,3l-4,1V122z"/>
</g>
<g>
	<path pointer-events="none" fill="#237971" d="M281,98h2l1,3L281,98z"/>
</g>
<g>
	<path pointer-events="none" fill="#CE61F4" d="M283,100l1,1l-2-1H283z"/>
</g>
<g>
	<path pointer-events="none" fill="#021604" d="M285,98l3-1l-1,5l-4-2v-2l2-1V98z"/>
</g>
<g>
	<path pointer-events="none" fill="#424560" d="M340,125v2l-1-3l-3,1l-1-6l4,2v3l1-1V125z"/>
</g>
<g>
	<path pointer-events="none" fill="#EFF665" d="M366,147h1H366z"/>
</g>
<g>
	<path pointer-events="none" fill="#D05D7A" d="M339,117v2h-2l-1-1l2-1H339z"/>
</g>
<g>
	<path pointer-events="none" fill="#65FC51" d="M361,129l-1,1l-1-2l3,1H361z"/>
</g>
<g>
	<path pointer-events="none" fill="#AE8A30" d="M382,83h3l3,3l3-1v2l-2,4h-3v5l-1-1l-9,6h-2l2-2l-1-1l-3,3h-2l3,3l3-1l-4,4l4,8l-4,7
		l-10,5l-7-4l-5,3l-3-4l-1,1l1-5l-3-1v-2l-4,2h-7l-7-3l-3-2l1-4l-4-2l-3-6l6-2l3-4l-1-3h2l2-4l2,1l1-3l2-1l4,4v2l5,2l2,3l10,2l7-2
		l1-4l2,1l7-4l-1-2l-3,1l1-3l3-2l2-6h5l3,5V83z"/>
</g>
<g>
	<path pointer-events="none" fill="#575DCB" d="M268,107l2-1L268,107z"/>
</g>
<g>
	<path pointer-events="none" fill="#ADC3F9" d="M269,107h-2H269z"/>
</g>
<g>
	<path pointer-events="none" fill="#60D6C1" d="M278,97l1-1l-2-2l8,4l-5-1H278z"/>
</g>
<g>
	<path pointer-events="none" fill="#99B564" d="M374,165l-2-1h2V165z"/>
</g>
<g>
	<path pointer-events="none" fill="#07DEA2" d="M379,165h-2l2-1V165z"/>
</g>
<g>
	<path pointer-events="none" fill="#CBDFB6" d="M371,162l1,1h-2L371,162z"/>
</g>
<g>
	<path pointer-events="none" fill="#14F80D" d="M377,162l-4,1h3L377,162z"/>
</g>
<g>
	<path pointer-events="none" fill="#52E97E" d="M359,160l9,2l-1,1l-12-2l1-2L359,160z"/>
</g>
<g>
	<path pointer-events="none" fill="#71E415" d="M391,160l-1,1l1-2V160z"/>
</g>
<g>
	<path pointer-events="none" fill="#8F9BD5" d="M382,156h-2H382z"/>
</g>
<g>
	<path pointer-events="none" fill="#553992" d="M386,156h-2H386z"/>
</g>
<g>
	<path pointer-events="none" fill="#7C1A81" d="M390,154l1,2l3-2l5,1v8l-5-1l1-3l-5-2v-2l-4-2h4V154z"/>
</g>
<g>
	<path pointer-events="none" fill="#DDB790" d="M379,151l-6,2h4l-2,2l2,3l-1,1l-2-4v4h-2l1-7l6-2V151z"/>
</g>
<g>
	<path pointer-events="none" fill="#D829A3" d="M384,151l-2,2v-2l2-1V151z"/>
</g>
<g>
	<path pointer-events="none" fill="#18A8EF" d="M371,150l1,1l-2,1l-1,5l-7-1l-2-3l1-3l5,1l4-4L371,150z"/>
</g>
<g>
	<path pointer-events="none" fill="#B34209" d="M356,159l-4-2l-9-11h3l6,5l4,6V159z"/>
</g>
<g>
	<path pointer-events="none" fill="#B56C5F" d="M322,106l2,2l-1,3l3,3l-1,1l4,3l10,1v-2l3-2l4,2l-3,2l-3,6v-2h-2l2-2l-5-2l1,5
		l-11,10v6l-3,2l-3-4l-3-11h-2l-3-4l3-1l-2-3l4-3l3-5l-2-3h4L322,106z"/>
</g>
<g>
	<path pointer-events="none" fill="#25571D" d="M293,104l4-2l5,4v9l3,3l-2,1v2h-3l-3-3l-3,1l-4-2l-1-3h-2l-4-5l1-2l-2-3v-4h4l5,5
		L293,104z"/>
</g>
<g>
	<path pointer-events="none" fill="#95ADB7" d="M283,106l3,6l-1,4l-10-6l3-2l2-4h2L283,106z"/>
</g>
<g>
	<path pointer-events="none" fill="#BB09AF" d="M271,110l-1,5L271,110z"/>
</g>
<g>
	<path pointer-events="none" fill="#85CFDA" d="M271,111h5l-3,1l1,2l-4,1l1-3V111z"/>
</g>
<g>
	<path pointer-events="none" fill="#40E814" d="M391,108l-1,2h-2l2-2H391z"/>
</g>
<g>
	<path pointer-events="none" fill="#201383" d="M398,104l-2,4l-10,1l2,1l-2,3l-1-1l1-3l11-7l2-5l1,3l-2,2V104z"/>
</g>
<g>
	<path pointer-events="none" fill="#B942DE" d="M402,93l2-1v2l-3,2l-2-1v2h-2l3-7l1,2L402,93z"/>
</g>
<g>
	<path pointer-events="none" fill="#3BADAD" d="M314,96l-5,2l-2-5l-4,1l-4-4l-3,1l-1,7l-6-5l4-4h-6l-3-4l6-6l12,2v-6l10-3h2v2h3v2
		l4-2l4,7l4-1l5,4l-3,4l-2-1l-1,3l-3,1l1,3l-2,2l-6-2l-4,1V96z"/>
</g>
<g>
	<path pointer-events="none" fill="#B389A5" d="M314,96h3l1-2l7,2l-10,5l-3-2l2,1l2-2h-2V96z"/>
</g>
<g>
	<path pointer-events="none" fill="#664EF5" d="M353,139v-4h4v4l-3,1L353,139z"/>
</g>
<g>
	<path pointer-events="none" fill="#6DF611" d="M383,102l2,4l-3,2l-1-5L383,102z"/>
</g>
<g>
	<path pointer-events="none" fill="#0F1CDB" d="M272,110v-1V110z"/>
</g>
<g>
	<path pointer-events="none" fill="#BBFC26" d="M286,114l1,2h-2v-2H286z"/>
</g>
<g>
	<path pointer-events="none" fill="#0489EB" d="M355,135l1-1l-2-4l-4,1l1-3l-2-1l3-3l1,3l2,1l-1,1l4,4v2h-2H355z"/>
</g>
<g>
	<path pointer-events="none" fill="#891C1A" d="M348,127l-2,2l3,9l-2,2l1-2l-2-6l-3,1l-3-6l1-5l1,1l1-4l3-2v6l1-1l3,4l-1,1H348z"/>
</g>
<g>
	<path pointer-events="none" fill="#16967D" d="M327,143l-1,2l-1-5l1,2L327,143z"/>
</g>
<g>
	<path pointer-events="none" fill="#F7DE5B" d="M334,84l6-3l6,2v-3l2-2l5,4h4l3,2l6-2l3,2l-1,2h3l2,2h-3l-5,4l-1-1l-2,3l-7,3l-4-2
		h-5l-5-4h-3v-3l-3-3L334,84z"/>
</g>
<g>
	<path pointer-events="none" fill="#D781B9" d="M350,145l3,1l1,5l-4-3l-1-4L350,145z"/>
</g>
<g>
	<path pointer-events="none" fill="#00BD2D" d="M371,147h-3l-1,4l-6-1l4-1l5-5l1,2V147z"/>
</g>
<g>
	<path pointer-events="none" fill="#D044B1" d="M335,117v2h-3l-7-4l3-1l5,3H335z"/>
</g>
<g>
	<path pointer-events="none" fill="#447C7D" d="M299,126l-2,4l-5,2l-1-3l4-1l1-6l4,2v2H299z"/>
</g>
<g>
	<path pointer-events="none" fill="#2E5A7E" d="M296,120v-1V120z"/>
</g>
<g>
	<path pointer-events="none" fill="#77AF31" d="M319,104l3,2l-1,2h-3l1,3l-3,5l-4,3l2,2l-4,2l-2-2h-4l-1-2h2l-3-4h4l3-3h2l3-3v-3
		l4-2H319z"/>
</g>
<g>
	<path pointer-events="none" fill="#703C59" d="M381,142l-1,3h-2v-2l-2,1l1-2H381z"/>
</g>
<g>
	<path pointer-events="none" fill="#C804F5" d="M378,140h-2l2-1V140z"/>
</g>
<g>
	<path pointer-events="none" fill="#94B069" d="M371,141l-1,1l3-4l-1,2L371,141z"/>
</g>
<g>
	<path pointer-events="none" fill="#2BABC7" d="M375,138h1H375z"/>
</g>
<g>
	<path pointer-events="none" fill="#260878" d="M380,138v2l-2-2l1-1L380,138z"/>
</g>
<g>
	<path pointer-events="none" fill="#A95FA5" d="M375,136l-1,1L375,136z"/>
</g>
<g>
	<path pointer-events="none" fill="#00CAB1" d="M375,130v5h3v2l-5-3l1-4H375z"/>
</g>
<g>
	<path pointer-events="none" fill="#4890D4" d="M386,96l-4,4l1,1l-4,2l1-3h-2l7-5L386,96z"/>
</g>
<g>
	<path pointer-events="none" fill="#A13D56" d="M290,121l1-1l-1,2V121z"/>
</g>
<g>
	<path pointer-events="none" fill="#0C714A" d="M271,111l-1,1L271,111z"/>
</g>
<g>
	<path pointer-events="none" fill="#494519" d="M280,132l-10-15v-2h2l1-3l2-1l12,5l4,8h4v4l-7,1l-3,3H280z"/>
</g>
<g>
	<path pointer-events="none" fill="#C35FDE" d="M275,110h-4l3-6h5l-1,4L275,110z"/>
</g>
<g>
	<path pointer-events="none" fill="#6D4CF2" d="M352,137l-3-1l-1,3v2l4,4h-2l-3-3l2-4l-3-9l2-2l2,1v2h4l2,3l-1,2l-3,1V137z"/>
</g>
<g>
	<path pointer-events="none" fill="#CB29E8" d="M314,99h-2l3,2l2-1l2,3l-4,2l-1-3l-4,2v-3L314,99z"/>
</g>
<g>
	<path pointer-events="none" fill="#3C297E" d="M302,106l-5-4l-3,2l-2-5l2-1h-2v-2h2l1,2l4-3l2,1v2h2l2,3l4,2l-6,4L302,106z"/>
</g>
<g>
	<path pointer-events="none" fill="#637A6E" d="M273,97h7l2,3v4h-8l-2,2l-2-2l-7,1l-3-3l1-3l10-3L273,97z"/>
</g>
<g>
	<path pointer-events="none" fill="#12A101" d="M261,98l-1,1l1-3l1,2H261z"/>
</g>
<g>
	<path pointer-events="none" fill="#9A7A08" d="M379,163h3H379z"/>
</g>
<g>
	<path pointer-events="none" fill="#F5D2BB" d="M375,122l-1,3l-1-1l3-3L375,122z"/>
</g>
<g>
	<path pointer-events="none" fill="#50423D" d="M309,104l-6-6h-2v-2l-2-1l-2,2l-1-6l3-1l4,4l4-1l2,5l4-2l1,2h2h-4L309,104z"/>
</g>
<g>
	<path pointer-events="none" fill="#0AEC5F" d="M359,126l-3,2l4,6v4l-5,4v-2l2-1l-1-1l2-1v-4l-6-8l3-2l3,2L359,126z"/>
</g>
<g>
	<path pointer-events="none" fill="#7D85EF" d="M292,132l-7,4h-5l1-5h4l3-2h3l1,2V132z"/>
</g>
<g>
	<path pointer-events="none" fill="#BD7888" d="M253,97l1,1l-2,2l1-4V97z"/>
</g>
<g>
	<path pointer-events="none" fill="#7818B9" d="M232,80l4,1l-3,2l-2-3H232z"/>
</g>
<g>
	<path pointer-events="none" fill="#DFA136" d="M249,86l-3,3l-6-2h4l1-3l4,1V86z"/>
</g>
<g>
	<path pointer-events="none" fill="#83153D" d="M256,93l7,1l-4,4l-4-2v-3H256z"/>
</g>
<g>
	<path pointer-events="none" fill="#B36C14" d="M251,92l1,1l-2,2l-3-3l4-1V92z"/>
</g>
<g>
	<path pointer-events="none" fill="#812D27" d="M257,75l5-5l4,1l-1,2l3,3h-2l1,2l-3,2l-7-1v-3V75z"/>
</g>
<g>
	<path pointer-events="none" fill="#B25D14" d="M249,85l-6-2l1-2h5l2,2L249,85z"/>
</g>
<g>
	<path pointer-events="none" fill="#C2765A" d="M240,87l1,1l-4,2l-1-3l3-1L240,87z"/>
</g>
<g>
	<path pointer-events="none" fill="#C427CB" d="M240,72l2,2h3l1,2v4l-3,2v5h-5v-3h-2l1-8l3-3V72z"/>
</g>
<g>
	<path pointer-events="none" fill="#B7BA66" d="M244,71l-1,2l-2-2l2-1L244,71z"/>
</g>
<g>
	<path pointer-events="none" fill="#CFA071" d="M241,69l-1,4l-2-4l2-2L241,69z"/>
</g>
<g>
	<path pointer-events="none" fill="#98319C" d="M217,97l2-4l7,1l6,3l-4,2l-2,6l-5,1l-2-4l2-5l-3-1L217,97z"/>
</g>
<g>
	<path pointer-events="none" fill="#1FCC99" d="M258,66l-2-3l6-1v4h-3H258z"/>
</g>
<g>
	<path pointer-events="none" fill="#8B33AB" d="M165,149l-3,1l1-5l3,2l-1,1V149z"/>
</g>
<g>
	<path pointer-events="none" fill="#A06605" d="M240,96l-1,1l1-2V96z"/>
</g>
<g>
	<path pointer-events="none" fill="#F0D856" d="M233,82l5,2l-2,4l1,5l-6,3l-5-1l1-5l-4-4l8-6l1,1L233,82z"/>
</g>
<g>
	<path pointer-events="none" fill="#8DA68C" d="M263,35v7l3,12l-4,6l-6,2l-2-3v-6l5-6l-2-2v-6l-4-4l1-1l4,3l2-4h3V35z"/>
</g>
<g>
	<path pointer-events="none" fill="#C78A9B" d="M221,73v2l-2-2l1-1L221,73z"/>
</g>
<g>
	<path pointer-events="none" fill="#26DD9A" d="M225,64l-2,3l3,1l-1,2l5,7l-1,4l-7,1l1-6h2l-1-3h-2l1-2l-1,1l-1-2v-4l1-2l1,1L225,64
		z"/>
</g>
<g>
	<path pointer-events="none" fill="#7F7DC2" d="M251,90v2h-4l4,4l-6-5h2v-2L251,90z"/>
</g>
<g>
	<path pointer-events="none" fill="#E091EB" d="M248,88l5-3l3,1l-5,4L248,88z"/>
</g>
<g>
	<path pointer-events="none" fill="#1597AF" d="M221,75l-1,3l-4,1l3-7l1,2L221,75z"/>
</g>
<g>
	<path pointer-events="none" fill="#6EAA6A" d="M211,44l1,4l-5,4l-6-1l1-1l-3-2h3l-3-2l1-2h2l1,2l2-2h4H211z"/>
</g>
<g>
	<path pointer-events="none" fill="#5184F0" d="M257,106l3,1h-3V106z"/>
</g>
<g>
	<path pointer-events="none" fill="#9436D4" d="M260,97l-3,1v2l-1-1l1,5h-3l-1-5L260,97z"/>
</g>
<g>
	<path pointer-events="none" fill="#1B8A0A" d="M247,102v2l-4-1l3-1H247z"/>
</g>
<g>
	<path pointer-events="none" fill="#E08F99" d="M239,98l1,3h-2L239,98z"/>
</g>
<g>
	<path pointer-events="none" fill="#AC23F6" d="M243,88l2,1l-2,4l7,6l-2,1v3v-2l-7-6v-2l-2-1l-2,2l-1-3l2-2l1,1L243,88z"/>
</g>
<g>
	<path pointer-events="none" fill="#0AA08C" d="M253,96v-2l1,2H253z"/>
</g>
<g>
	<path pointer-events="none" fill="#042585" d="M236,82h-1H236z"/>
</g>
<g>
	<path pointer-events="none" fill="#AC80FC" d="M256,74l-2-4h5l1,1l-2,4L256,74z"/>
</g>
<g>
	<path pointer-events="none" fill="#2C360B" d="M254,70l1-4l1,2l2-2l4,2l-1,3l-6-1H254z"/>
</g>
<g>
	<path pointer-events="none" fill="#CF6A05" d="M260,86l1-1l4,4l-3,1l-1-4H260z"/>
</g>
<g>
	<path pointer-events="none" fill="#3BE2AE" d="M253,97l3-1v2L253,97z"/>
</g>
<g>
	<path pointer-events="none" fill="#711090" d="M252,96l-1-1h2L252,96z"/>
</g>
<g>
	<path pointer-events="none" fill="#89278A" d="M236,76v5l-3-1l1-4H236z"/>
</g>
<g>
	<path pointer-events="none" fill="#B4A3F3" d="M262,28l4,3v3l-2,1l-2-3l-4,5l-4-3l-2,4l-2-1l-5,14h-2l1,7l-2,5l-1-1l-4,4l-2-1l-1-9
		l7-6l10-17l3-2l2,1l2-3h2L262,28z"/>
</g>
<g>
	<path pointer-events="none" fill="#B4B6B8" d="M258-3l-3,3l-2-2v-3l3-1v2L258-3z"/>
</g>
<g>
	<path pointer-events="none" fill="#C8C6F3" d="M250-14l4,5l-3,2l-2,10l-4-3l1-2l-2-2l-3-10l3-2l1,2h2v-2l2-1L250-14z"/>
</g>
<g>
	<path pointer-events="none" fill="#01AF41" d="M259-19l2,2l-1,4h-7l-4-5l4-2l2,1l1-2L259-19z"/>
</g>
<g>
	<path pointer-events="none" fill="#1374F2" d="M217,97h4l-2,7l-2-2V97z"/>
</g>
<g>
	<path pointer-events="none" fill="#C31C9B" d="M256,86l6,1l1,7l-8-2l-2-2l2-3L256,86z"/>
</g>
<g>
	<path pointer-events="none" fill="#01A9BF" d="M246,80l-1-5l3-2l9,2v6l-2,2l1,1h-4l-3-3h-2L246,80z"/>
</g>
<g>
	<path pointer-events="none" fill="#634141" d="M253,91l3,1v4l-4-2l-1-4h2V91z"/>
</g>
<g>
	<path pointer-events="none" fill="#C50CF2" d="M251,83l5,1l-6,3l-1-1L251,83z"/>
</g>
<g>
	<path pointer-events="none" fill="#667ED1" d="M245,89h3l-2,2l-1-1V89z"/>
</g>
<g>
	<path pointer-events="none" fill="#D725E4" d="M255,46l-1,4l-4,4l-1,4l2,3l-6,11l-3-8l2-6l-1-7h2l3-10l2-4l2,1v-3l5,4v6L255,46z"/>
</g>
<g>
	<path pointer-events="none" fill="#C887EC" d="M267,78h2l5,5h3l-8,9l-2-1v-2h-2l-1,2l-2-1l3-1l-4-4l-3,2l-3-2l2-6l8,1l1-2H267z"/>
</g>
<g>
	<path pointer-events="none" fill="#F06812" d="M402,81l1,3h-2l-1,2l2,2l-2,2l-1-14l2-2v5L402,81z"/>
</g>
<g>
	<path pointer-events="none" fill="#C465F5" d="M256,74h-4l2-2l2,1V74z"/>
</g>
<g>
	<path pointer-events="none" fill="#98C68A" d="M17,43l1,1v-2h3l2,3l-1,2h-2v3l-8-4l1-1l-2,1v2V36l6,6V43z"/>
</g>
<g>
	<path pointer-events="none" fill="#2C2729" d="M446,29h-2l2-2V29z"/>
</g>
<g>
	<path pointer-events="none" fill="#ED973C" d="M13,29h-2v-2l3,1L13,29z"/>
</g>
<g>
	<path pointer-events="none" fill="#06C7C4" d="M402,20h-5l3-3l2,2V20z"/>
</g>
<g>
	<path pointer-events="none" fill="#9CF500" d="M410,12l-3,1l-2-2l2-1L410,12z"/>
</g>
<g>
	<path pointer-events="none" fill="#AD4EE9" d="M403,9l-1,4l-6,1l-2-3V7h5L403,9z"/>
</g>
<g>
	<path pointer-events="none" fill="#966533" d="M298,30h-5v-2l-3-3l2-1l4-10l-1-2l7-6l9-4v4l-12,9l-4,8v4L298,30z"/>
</g>
<g>
	<path pointer-events="none" fill="#5AEC82" d="M357,2l1,3l4-1l4,4v3l-6,5l4,1l1,2l7-1v2l5,1v-3h5l2,3l-1,4l4,4l1-4l2,2h7l-1-4l2-2
		l11,3l4,5h7l1,4l2,1h8l2,3l2-1l-1-3l10,1l2,2v12l-4,1l3,5l-20,9v7l-7,10l-2-8l1-3l10-14h-2v2l-3,3l-1-3l-4,1l-3,4l1,1l-2,1h-2v-2
		l-11,1l-9,10h2l1,2l2-1l3,2v2l-3,10l-6,7h-4v-4l4-2l1-4l-5,1l-1-3h-3l-3-7h-5l-3,7l-4-1l-7,2l-3-2h-4l-5-4l-2,2v3l-6-2l-6,3l-5-4
		l-4,1l-4-7l-4,2v-2h-2l-1-2l-12,3v6h-6l-5-2l-4,2v2l-1-1l-2,3l4,4l-3,3l2,5l-1,1l-4-3l-7-2l-2-2l3-3h-2l3-4l-11-7v-5l-4-2l-1-3l2-6
		l-1-1l4-5l-2-7l1-2l-2-4v-7l4-2l10,6v5l-2,1l-6-2l1,7l2,1l1-3l3,1v-2l3-3l2,1v-8l3,1v5h2v-2l7-5l1,3l5-3l2,2v-4h4l6,5l1-2l-3-3v-4
		l3-9l4,1l-1,5l2,13l-3,4l2,1l3-5v-4l-2-1v-8l2-3l-1-2l1-1l1,7v-3l2-1l5,2l-2-8l8-1l-1-2l5-6l4-2l4,1l3-3h2l1-5l3-2l2,2l-1,1L357,2z
		"/>
</g>
<g>
	<path pointer-events="none" fill="#36335F" d="M355-5l-7,2l4-9l4,4L355-5z"/>
</g>
<g>
	<path pointer-events="none" fill="#EDA526" d="M290-20l-4,4l-2-2l1-2h-3l3-2h2v2l2-3l1,2V-20z"/>
</g>
<g>
	<path pointer-events="none" fill="#B5100F" d="M349-9l-3,1l-3-2l-5-9l6-6l5,10V-9z"/>
</g>
<g>
	<path pointer-events="none" fill="#79AF55" d="M404,206h3l-1,5l-3-5H404z"/>
</g>
<g>
	<path pointer-events="none" fill="#0C4BC0" d="M402,169l2,2l1,5l8,8l1,4l-5,14l-4,2l-2-2l-3,1l-3-2v-2l-4-1l2-3l-3,2l-5-5l-5,2
		l-1-1l-10,5l-4-2l1-3l-3-7l1-7l9-3l4-6l3-1l3,2v-2l3-3l6,1l-2,4l4,3l3-1l1-7L402,169z"/>
</g>
<g>
	<path pointer-events="none" fill="#881E1D" d="M444,174h-1H444z"/>
</g>
<g>
	<path pointer-events="none" fill="#16BFB7" d="M445,173h1H445z"/>
</g>
<g>
	<path pointer-events="none" fill="#8732DF" d="M11,172L11,172z"/>
</g>
<g>
	<path pointer-events="none" fill="#DD13CE" d="M428,178l2,2l-4-3L428,178z"/>
</g>
<g>
	<path pointer-events="none" fill="#F0F0CF" d="M437,207h2l-5,8h-5l8-9V207z"/>
</g>
<g>
	<path pointer-events="none" fill="#27EDD4" d="M439,199l5,4l-4,5l-2-4l1-3l-2-3h2V199z"/>
</g>
<g>
	<path pointer-events="none" fill="#5941D1" d="M416,161l-1-2l2,1L416,161z"/>
</g>
<g>
	<path pointer-events="none" fill="#315E31" d="M412,159h-5l4-2l1,1V159z"/>
</g>
<g>
	<path pointer-events="none" fill="#42A9F1" d="M406,161l4,4l-7-3h-2l-1,2l-1-9l7,5V161z"/>
</g>
<g>
	<path pointer-events="none" fill="#BD9FE2" d="M413,158l-2-2l2,1V158z"/>
</g>
<g>
	<path pointer-events="none" fill="#C26D25" d="M424,165L424,165z"/>
</g>
<g>
	<path pointer-events="none" fill="#B01C98" d="M422,164L422,164z"/>
</g>
<g>
	<path pointer-events="none" fill="#2F0659" d="M423,164v-1V164z"/>
</g>
<g>
	<path pointer-events="none" fill="#555A6F" d="M421,162l-2-1L421,162z"/>
</g>
<g>
	<path pointer-events="none" fill="#DBBC67" d="M418,161l-1-1L418,161z"/>
</g>
<g>
	<path pointer-events="none" fill="#0F5DD1" d="M431,172h-1H431z"/>
</g>
<g>
	<path pointer-events="none" fill="#AF263E" d="M430,171l-1-1L430,171z"/>
</g>
</svg>
