<?xml version="1.0" encoding="utf-8"?>
<!-- Generator: Adobe Illustrator 16.0.0, SVG Export Plug-In . SVG Version: 6.00 Build 0)  -->
<!DOCTYPE svg PUBLIC "-//W3C//DTD SVG 1.1//EN" "http://www.w3.org/Graphics/SVG/1.1/DTD/svg11.dtd">
<svg version="1.1" id="Layer_1" xmlns="http://www.w3.org/2000/svg" xmlns:xlink="http://www.w3.org/1999/xlink" x="0px" y="0px"
	 width="435px" height="281.001px" viewBox="100 37.5 435 281.001" enable-background="new 100 37.5 435 281.001"
	 xml:space="preserve">
<g>
	<g>
		<path pointer-events="none" fill="#11CA30" d="M224,208.5v-1V208.5z"/>
	</g>
	<g>
		<path pointer-events="none" fill="#C1FF85" d="M223,204.5L223,204.5z"/>
	</g>
	<g>
		<path pointer-events="none" fill="#7CACD5" d="M224,204.5l-1-1L224,204.5z"/>
	</g>
	<g>
		<path pointer-events="none" fill="#0B9CCD" d="M210,215.5v1V215.5z"/>
	</g>
	<g>
		<path pointer-events="none" fill="#17976A" d="M217,227.5l-3-3h2l2,2L217,227.5z"/>
	</g>
	<g>
		<path pointer-events="none" fill="#38A29B" d="M240,174.5h2l-1,1l-1-2V174.5z"/>
	</g>
	<g>
		<path pointer-events="none" fill="#5A9E73" d="M243,169.5l-4-1l1-1L243,169.5z"/>
	</g>
	<g>
		<path pointer-events="none" fill="#733982" d="M168,170.5h-2l-4-4l6,3V170.5z"/>
	</g>
	<g>
		<path pointer-events="none" fill="#A70831" d="M250,166.5l-1,2l1-1l1,2h2v4l-7-1l2-6l2-1V166.5z"/>
	</g>
	<g>
		<path pointer-events="none" fill="#B2642D" d="M157,159.5l2,4l-3-3L157,159.5z"/>
	</g>
	<g>
		<path pointer-events="none" fill="#DDAB42" d="M222,141.5l-1,1v-2L222,141.5z"/>
	</g>
	<g>
		<path pointer-events="none" fill="#FDDB40" d="M218,139.5l-1,2l-1-1L218,139.5z"/>
	</g>
	<g>
		<path pointer-events="none" fill="#57A62F" d="M214,131.5l7,6h-9L214,131.5z"/>
	</g>
	<g>
		<path pointer-events="none" fill="#7F6F24" d="M226,127.5h-2l2-4v3V127.5z"/>
	</g>
	<g>
		<path pointer-events="none" fill="#D21810" d="M202,120.5l-1,2l-4-3l2-2l2,2L202,120.5z"/>
	</g>
	<g>
		<path pointer-events="none" fill="#D79239" d="M208,119.5v3l2-2l2,7l2-9h4l1,9l-6,3l-1,4l-4,3v2h-2l-3,10h2l1,4h4l3,3l4,1l4,8v-7
			l4-4l-2-5v-9h5l3,2l2,2l1,5l2,1l3-3v-2l4,10l7,6v2l-5,4l-9,1l-5,5l8-4v4l2,2h2l1-2v3l-6,3l-1-2l3-1h-4l-2-4l-3,4h-4l-9,6v-5l-6-6
			l-10-2h-33l-6-3l-7-16l-3-3l-2,2l-4-4v-27l6,3l10-5l2,3l2-2v2l4-1l9,5l-2,1h7l1,2v-3l3-2l2,3l4,1h2l2-3l2,1v3l3-6l-3-3l1-7l3,2
			l2,5l-1,1L208,119.5z"/>
	</g>
	<g>
		<path pointer-events="none" fill="#36FC2E" d="M179,105.5v2l3-1l1,2l2-2l2,5l-1-6l4,2l1,7l4,3v2h-2l1,3l-5-2l-8,2l-3-2l-2-3l6-1
			l-7-1l-1-1l3-2h-4l2-5l3-2H179z"/>
	</g>
	<g>
		<path pointer-events="none" fill="#8D5EBA" d="M191,104.5l-1,3l-2-3l2-1L191,104.5z"/>
	</g>
	<g>
		<path pointer-events="none" fill="#762AE9" d="M225,105.5v2h-4l-1-3l3-1L225,105.5z"/>
	</g>
	<g>
		<path pointer-events="none" fill="#A3CEAF" d="M213,105.5l1,3l1-4l3-1l2,7l3-3l11,8l2,5l-2,2l5,2l4,4l-3,5l-3-4h-2l4,9l-2,1l-3-2
			l3,4l-7-3l1-1l-4-3h-5l1-2h5l2-6l-5-5l-1-3l-15-3v-10l5-3L213,105.5z"/>
	</g>
	<g>
		<path pointer-events="none" fill="#165EE9" d="M196,102.5l4,1l-1,3l2,2v3l-2,2l-5-5l2-1l-1-3L196,102.5z"/>
	</g>
	<g>
		<path pointer-events="none" fill="#F220C6" d="M205,107.5l-2,3l-2-4l2-5l5,1l-2,4L205,107.5z"/>
	</g>
	<g>
		<path pointer-events="none" fill="#931DF2" d="M172,112.5l-3,2l-4-4l3-7l-2-3l11,2l1,2l-5,4l-1,3V112.5z"/>
	</g>
	<g>
		<path pointer-events="none" fill="#76EA8F" d="M204,97.5v2l-4-2l3-3l1,2V97.5z"/>
	</g>
	<g>
		<path pointer-events="none" fill="#7DBF41" d="M198,89.5l1,8l-2,1l-1-4h-2l-1-3L198,89.5z"/>
	</g>
	<g>
		<path pointer-events="none" fill="#A76009" d="M187,91.5v2l1-1l2,3l-1,2l-7,3h-2l2-4h-7l3-6l8,5l-2-5l1-2l1,1L187,91.5z"/>
	</g>
	<g>
		<path pointer-events="none" fill="#2C7FBA" d="M203,87.5l4,1v4l3,2l3,1l4-2l4,2l-1,4l-9,1l-5-2l-2-7l-4-3l1-2L203,87.5z"/>
	</g>
	<g>
		<path pointer-events="none" fill="#DBF331" d="M177,84.5l-1,6l-5,3l-2-1l6-8H177z"/>
	</g>
	<g>
		<path pointer-events="none" fill="#80E060" d="M204,84.5h-3v-2L204,84.5z"/>
	</g>
	<g>
		<path pointer-events="none" fill="#385A0A" d="M184,83.5l-2,2l-2-2l1-2h4L184,83.5z"/>
	</g>
	<g>
		<path pointer-events="none" fill="#DF14CF" d="M185,78.5l-4,1l2-2L185,78.5z"/>
	</g>
	<g>
		<path pointer-events="none" fill="#56DD33" d="M202,81.5h-3l-1-5h2l2,3V81.5z"/>
	</g>
	<g>
		<path pointer-events="none" fill="#CCA0DF" d="M197,80.5v2l-4-3h-3v-6l6,4L197,80.5z"/>
	</g>
	<g>
		<path pointer-events="none" fill="#90034E" d="M212,71.5l2,2l-4,7l-5-1v-6l-4-2v-7l2-4l3-1l1,5l4,3L212,71.5z"/>
	</g>
	<g>
		<path pointer-events="none" fill="#EE9747" d="M235,43.5l5,2l3,3v2l-7,7h2l-5,7l-2,6l-3,3h-4l2,1v4l-5,8l2,1l-3,4l-11-1l2-8l4,2
			l-4-5l4-6l-3-6l5,1l1-3h-6l-3-2l-2-9l5-3l2-4l3,3l2-6l6-2h7L235,43.5z"/>
	</g>
	<g>
		<path pointer-events="none" fill="#CF0084" d="M218,209.5h5l5,4h-5l1-1l-6-2l1-1l-3,1L218,209.5z"/>
	</g>
	<g>
		<path pointer-events="none" fill="#82330D" d="M261,48.5l4-6h4l2-4l4-1l10,2l7,8l-2,3l-11,2h5l3,3l3-3l1,4l-2,4l9-6l4,2l1,3l-6,7
			l-4,2h3l-2,5l1,14l-4,2l2,3l1,4h-2l2,4l-3,1l2,1l-2,3h-2l1,4l-2-2l-1,2l4,3v3l-2,1l-3-4l1,3l-2,1l4,1l-2,3l-18,12l-4,14l-6-2l-5-9
			l-2-8l4-9l-3,2l-2-1l1-5l3,1l-5-4l1-5l-4-11l-6-4l-6,1l-4-5l6-2l-5-1l-3-3v-2l9-6v-3l-3-2l1-3l6-6v-4l6-3h4l1,2l3-5l3,4h2l3,3
			l-3-4V48.5z"/>
	</g>
	<g>
		<path pointer-events="none" fill="#23A0E1" d="M231,213.5l3,1l-3,2v-2V213.5z"/>
	</g>
	<g>
		<path pointer-events="none" fill="#472E94" d="M209,221.5l-3-1l2-3l-1-1l2-1v5V221.5z"/>
	</g>
	<g>
		<path pointer-events="none" fill="#340201" d="M212,221.5l-3-1l2-2l6,1L212,221.5z"/>
	</g>
	<g>
		<path pointer-events="none" fill="#ADAADF" d="M224,215.5h-1H224z"/>
	</g>
	<g>
		<path pointer-events="none" fill="#19ED0A" d="M229,213.5h2v2h-4h2V213.5z"/>
	</g>
	<g>
		<path pointer-events="none" fill="#3F0B76" d="M200,205.5l-1,4l4,6l5-1l1-3l3,1l-1,3h-4l1,3h-8l-8-3l-12-18l-1,3l4,4l2,4l-1,1
			l-6-7l1-1l-3-4l3-2l4,2h6L200,205.5z"/>
	</g>
	<g>
		<path pointer-events="none" fill="#938F16" d="M214,224.5l-2-2l3-3h2v3L214,224.5z"/>
	</g>
	<g>
		<path pointer-events="none" fill="#0225DB" d="M223,229.5l-1-3l-2,2l-3-1l5-1l2,1l-1,1V229.5z"/>
	</g>
	<g>
		<path pointer-events="none" fill="#BE5D12" d="M211,221.5h-2l2-1V221.5z"/>
	</g>
	<g>
		<path pointer-events="none" fill="#354F12" d="M237,215.5h-1H237z"/>
	</g>
	<g>
		<path pointer-events="none" fill="#F8FFC7" d="M243,224.5v1V224.5z"/>
	</g>
	<g>
		<path pointer-events="none" fill="#4E7F51" d="M130,214.5l-1-1L130,214.5z"/>
	</g>
	<g>
		<path pointer-events="none" fill="#E70E61" d="M129,212.5l-1-1L129,212.5z"/>
	</g>
	<g>
		<path pointer-events="none" fill="#A3A83F" d="M128,211.5h-1H128z"/>
	</g>
	<g>
		<path pointer-events="none" fill="#57530F" d="M127,211.5L127,211.5z"/>
	</g>
	<g>
		<path pointer-events="none" fill="#0D5315" d="M125,210.5L125,210.5z"/>
	</g>
	<g>
		<path pointer-events="none" fill="#6AAB76" d="M203,169.5l12,4l3,3v6l7-3l2-3h4l3-4l1,1l1,3l-4,4v2l1-1l-5,2h2h-2l-1,3l-1-1l1,1
			l-1,2l-1-1v5l-6,5l2,7l-1,2l-3-3l1-2l-2-2h-6l-2,2l-5-1l-3,3v2l-5-5l-2,1l-4-4l-12-1l-3-3h-2l-5-9v-14l2,1v2v-4h33H203z"/>
	</g>
	<g>
		<path pointer-events="none" fill="#2BA51A" d="M133,153.5l-2,1l1-3l2,1L133,153.5z"/>
	</g>
	<g>
		<path pointer-events="none" fill="#510F9B" d="M117,146.5h-2l2-1V146.5z"/>
	</g>
	<g>
		<path pointer-events="none" fill="#2862A7" d="M110,136.5l4,2h-4V136.5z"/>
	</g>
	<g>
		<path pointer-events="none" fill="#F54533" d="M130,113.5l1,2l3-1l-1,1l2,1l2-1l2,2l7,1l1,27l4,4l2-2l7,9v2l-6-8l-14-6l-5,4v-4
			l-4,4l1,1l-2,3l-12,7l8-6l2-4h-6v-2l-4-2l-1-3l2-4l4-1v-2h-5l-4-4l5-3l1,2h2l-6-7l6-7l6-4L130,113.5z"/>
	</g>
	<g>
		<path pointer-events="none" fill="#B8D913" d="M238,318.5l-4-1v-5l5,5L238,318.5z"/>
	</g>
	<g>
		<path pointer-events="none" fill="#16BA50" d="M239,265.5l9,4v3h2l1-3l2,1l-6,7v5l2,3l-1,2l-5,1l-1,3l-2,1l-1-1l1,3l-4,5l2,5l-4,4
			l1,4l-5-1l-1-5l2-7l-1-8l3-10l-1-4l5-13L239,265.5z"/>
	</g>
	<g>
		<path pointer-events="none" fill="#4335E4" d="M241,265.5l-1,1l-3-2l-2,2v-5l-2-2v-8l4-2l11,10l-1,3l-4-1l-1,4H241z"/>
	</g>
	<g>
		<path pointer-events="none" fill="#CD912E" d="M234,312.5v5h2l-1,1h-2l-6-5l4,2L234,312.5z"/>
	</g>
	<g>
		<path pointer-events="none" fill="#6D13DF" d="M235,264.5l1,3l-4,10l1,3l-2,5l1,3l-2,3l1,8l-2,7l1,4l5,2h-2l-1,3l-4-2l-2-3v-5l2-3
			l-2-1l4-7l-1-1l-1,3v-10l3-5l2-22l2,2l-1,1L235,264.5z"/>
	</g>
	<g>
		<path pointer-events="none" fill="#959ACF" d="M248,276.5l5-5l-1-4h-2v-2h-3v-7l-3-2v-2l-6-3v-2l-5,2l-5-5l4-4l2-6l-1-1l5,1l3-2
			l-2-2l2,1l4-2l1,5l4-2l3,1l2-3l2,4l-1,1l7,2v2h6l6,4v3l-5,6v6l-3,5l-7,3l-1,5l-2,1l-4,7v-2l-4-4L248,276.5z"/>
	</g>
	<g>
		<path pointer-events="none" fill="#82F541" d="M226,237.5l-4-2l2-2l-1-5l8-6l-2,3l1,4l6,1l-1,4l2,2l-4-1v7l-6-5H226z"/>
	</g>
	<g>
		<path pointer-events="none" fill="#E219C5" d="M243,311.5l4-2l1,1l-4,2L243,311.5z"/>
	</g>
	<g>
		<path pointer-events="none" fill="#E09313" d="M220,241.5l2-5l4,2l-4,5l-2-1V241.5z"/>
	</g>
	<g>
		<path pointer-events="none" fill="#F9D342" d="M245,227.5l3,3l-1,1l2,4h-4v-4l-2-1l1-2L245,227.5z"/>
	</g>
	<g>
		<path pointer-events="none" fill="#2905D9" d="M233,259.5l-1,1l-6-4l-7-13l1-2v2h2l4-4v-2l3,3l4,1l-4,3l-1,4l3,2l1-1l2,8
			L233,259.5z"/>
	</g>
	<g>
		<path pointer-events="none" fill="#462AD1" d="M242,265.5l1-4h2l2,1v3l5,2v2l-2,3h-2v-3l-4-2L242,265.5z"/>
	</g>
	<g>
		<path pointer-events="none" fill="#8B021D" d="M248,230.5h4v4l-3,1l-2-3l1-1V230.5z"/>
	</g>
	<g>
		<path pointer-events="none" fill="#8E71EE" d="M231,223.5v2l2-2l5,2l5-1l-1,1l3,2v2h-2l1,2l-3,2l-1-1l1,3l-4,1l-2-2l1-3l-6-2v-6
			H231z"/>
	</g>
	<g>
		<path pointer-events="none" fill="#656BE6" d="M248,276.5l1-1l4,4v2l-5,1l-1-5L248,276.5z"/>
	</g>
	<g>
		<path pointer-events="none" fill="#D305DC" d="M353,243.5l1-3L353,243.5z"/>
	</g>
	<g>
		<path pointer-events="none" fill="#C3392D" d="M337,244.5l2,3l5-1v5l2-1v2l-2,1l1,5l-2,1h-12l3-7l-2-7l1-1H337z"/>
	</g>
	<g>
		<path pointer-events="none" fill="#2C1564" d="M332,244.5l1-1L332,244.5z"/>
	</g>
	<g>
		<path pointer-events="none" fill="#08BBE7" d="M321,230.5l-2-1l-1-4l3-3v6V230.5z"/>
	</g>
	<g>
		<path pointer-events="none" fill="#19D4B2" d="M348,260.5l5,5l-10,6l-2-7h2v-4l5-1V260.5z"/>
	</g>
	<g>
		<path pointer-events="none" fill="#688042" d="M336,228.5h3l5-4l6,7h-9l-4,2v2l-2-2v-3L336,228.5z"/>
	</g>
	<g>
		<path pointer-events="none" fill="#14C0A9" d="M314,231.5l-5,1l-2-2v-5h6L314,231.5z"/>
	</g>
	<g>
		<path pointer-events="none" fill="#207320" d="M333,235.5h-4l-1-5l5-3l2-4l-1-1l2,3h-2l2,2l-1,5l2,2l-2,1H333z"/>
	</g>
	<g>
		<path pointer-events="none" fill="#21D532" d="M355,233.5l-3,7l2,6l-2,1l1,6l-3-2h-6v-4l-2-1l-4,1l-1-2h-5l5-4l4-10l12,1
			L355,233.5z"/>
	</g>
	<g>
		<path pointer-events="none" fill="#6F703C" d="M333,243.5l-2-1l4-2v-4h-2l6-3l1,1l-3,7L333,243.5z"/>
	</g>
	<g>
		<path pointer-events="none" fill="#214F6D" d="M314,226.5h-2l-1-3l3-3l4-1l2,4l-6,2V226.5z"/>
	</g>
	<g>
		<path pointer-events="none" fill="#2C856A" d="M369,222.5v2V222.5z"/>
	</g>
	<g>
		<path pointer-events="none" fill="#64B18C" d="M332,208.5l-10,6l-15-11v-2l9-5v-5l5-2h6l-1,6l3,4v6l2,2L332,208.5z"/>
	</g>
	<g>
		<path pointer-events="none" fill="#3205DD" d="M359,200.5l-1,3l-2-3l6,10h-15v-12h12V200.5z"/>
	</g>
	<g>
		<path pointer-events="none" fill="#5A2567" d="M368,222.5l-4-3l-3,1l3-5v2l5,5H368z"/>
	</g>
	<g>
		<path pointer-events="none" fill="#B4C28C" d="M363,219.5l3,1l2,4l6,4l-2,3l-4,2h-5l-6-6l4-7h2V219.5z"/>
	</g>
	<g>
		<path pointer-events="none" fill="#3D95A4" d="M331,242.5l-3-3l3-3v-2l4,2v4l-3,1L331,242.5z"/>
	</g>
	<g>
		<path pointer-events="none" fill="#99204B" d="M307,228.5l-4-3l-2,2l-2-3l2-2h5l2,4L307,228.5z"/>
	</g>
	<g>
		<path pointer-events="none" fill="#4E12AF" d="M319,230.5l-4,2l-2-2l1-6l4,1v5H319z"/>
	</g>
	<g>
		<path pointer-events="none" fill="#0C5B23" d="M297,221.5h3h-2H297z"/>
	</g>
	<g>
		<path pointer-events="none" fill="#1452FF" d="M299,224.5l-2-2h4l-1,1L299,224.5z"/>
	</g>
	<g>
		<path pointer-events="none" fill="#D9ED8E" d="M329,236.5l2-1L329,236.5z"/>
	</g>
	<g>
		<path pointer-events="none" fill="#110F57" d="M367,238.5l-2,4l-7-3l2-4l-2-3h9v2V238.5z"/>
	</g>
	<g>
		<path pointer-events="none" fill="#D0A765" d="M308,232.5l-5-3l2-2l3,4V232.5z"/>
	</g>
	<g>
		<path pointer-events="none" fill="#4441BF" d="M335,209.5l-6-3v-8l4-3l7,4l2-1l-1-1l2-2l4,2v16l-11-5L335,209.5z"/>
	</g>
	<g>
		<path pointer-events="none" fill="#AE4E49" d="M352,274.5l-1,2l-1-1l2-2V274.5z"/>
	</g>
	<g>
		<path pointer-events="none" fill="#F8E781" d="M377,252.5l1,4l-3,11l-4,2l-1-9L377,252.5z"/>
	</g>
	<g>
		<path pointer-events="none" fill="#1EC696" d="M311,191.5l3,1l2,3l-9,6v2h-2l-6,8h-2l2-6l7-6l-1-1l5-7H311z"/>
	</g>
	<g>
		<path pointer-events="none" fill="#B0F105" d="M303,219.5l8-1l-1-12l12,8v3l-10,4l-1,4h-4l-1-3l-3,1v-3V219.5z"/>
	</g>
	<g>
		<path pointer-events="none" fill="#239424" d="M359,251.5l2,1l5-2v7l-7,5l1,6l-3,1v2l-2-6l2-3v-4l-3-1v-2l3-1l3,4l-1-6V251.5z"/>
	</g>
	<g>
		<path pointer-events="none" fill="#3018A8" d="M303,219.5l-3-2l-3,1v-6l5-1l-1-2l2-4h4v-2l4,3v11L303,219.5z"/>
	</g>
	<g>
		<path pointer-events="none" fill="#E71D42" d="M359,251.5l1,6l-3-3v-5l2,1V251.5z"/>
	</g>
	<g>
		<path pointer-events="none" fill="#C9D12D" d="M337,273.5l-5-14h15l-4,1v4h-2v9h-3H337z"/>
	</g>
	<g>
		<path pointer-events="none" fill="#5F005D" d="M328,232.5h-4l-3-4l1-7l2-1l4,2l4-1l3,2l-2,4l-5,4V232.5z"/>
	</g>
	<g>
		<path pointer-events="none" fill="#6DCED1" d="M320,223.5l-2-4l4-2v-3l10-6l4,3v6l-2,1v4l-10-2l-4,2V223.5z"/>
	</g>
	<g>
		<path pointer-events="none" fill="#3F732A" d="M354,239.5l-2,2l1-2H354z"/>
	</g>
	<g>
		<path pointer-events="none" fill="#E84874" d="M307,203.5v2h-4v3l-2,1l1,2h-5h2l3-5l4-3H307z"/>
	</g>
	<g>
		<path pointer-events="none" fill="#4244F2" d="M358,226.5l-1-4l-2,4h-9l-2-5l2-3l1-8h15l2,5L358,226.5z"/>
	</g>
	<g>
		<path pointer-events="none" fill="#E62E1C" d="M358,226.5l-1,1l3,4l-3,2l-6-1l-4-5v-2l8,1l2-4L358,226.5z"/>
	</g>
	<g>
		<path pointer-events="none" fill="#313FFA" d="M297,221.5l-1-2l2-2h2l3,3v2h-6l3-1h-2H297z"/>
	</g>
	<g>
		<path pointer-events="none" fill="#278BAA" d="M376,226.5l-1,2l-5-2l-1-3l2,2l5-2v2V226.5z"/>
	</g>
	<g>
		<path pointer-events="none" fill="#EA0844" d="M303,229.5l-2-2l2-2l2,2l-1,2H303z"/>
	</g>
	<g>
		<path pointer-events="none" fill="#1C7B4B" d="M377,223.5h2l-1,5l-4,6l-7,5v-5l9-7L377,223.5z"/>
	</g>
	<g>
		<path pointer-events="none" fill="#DB87CF" d="M356,271.5h-2l2-1V271.5z"/>
	</g>
	<g>
		<path pointer-events="none" fill="#F70713" d="M335,222.5l-1-4l2-1v-9l10,5v5l-2,2l1,3l-2,3l-6,2l-3-3h2L335,222.5z"/>
	</g>
	<g>
		<path pointer-events="none" fill="#14C80A" d="M320,230.5h-2l-1-6l2,2v3L320,230.5z"/>
	</g>
	<g>
		<path pointer-events="none" fill="#6ABD84" d="M329,199.5l-3-6l1-4h4v6L329,199.5z"/>
	</g>
	<g>
		<path pointer-events="none" fill="#0E6E52" d="M358,238.5l7,5v8l-4,1l-7-5l-1-4l1-3l2-1L358,238.5z"/>
	</g>
	<g>
		<path pointer-events="none" fill="#A4BCF1" d="M356,239.5l-3-1l2-3l-1-1l4-2l2,3l-2,3L356,239.5z"/>
	</g>
	<g>
		<path pointer-events="none" fill="#206E6E" d="M355,274.5l-6,7l-9,1l-3-9h4v-5l2,3l12-6l1,4l-2,2l3,1l-1,2H355z M352,274.5l-2,1
			l1,1l2-2H352z"/>
	</g>
	<g>
		<path pointer-events="none" fill="#7B148D" d="M391,191.5l1,1l5-4l3,1l2-2l2,2h3l-4,2l1,1l-3,3v2l-4,1l-1,2h-5v-7V191.5z"/>
	</g>
	<g>
		<path pointer-events="none" fill="#81BD33" d="M355,265.5h-2l-5-5l5-4l3,1v6L355,265.5z"/>
	</g>
	<g>
		<path pointer-events="none" fill="#862191" d="M357,248.5l1,4l-8,7h-4l-2-2v-4h2v-2h4l2,2v-5h4H357z"/>
	</g>
	<g>
		<path pointer-events="none" fill="#0519B9" d="M380,207.5l5-2l-1,3l-4,1V207.5z"/>
	</g>
	<g>
		<path pointer-events="none" fill="#237971" d="M370,183.5h2l1,3L370,183.5z"/>
	</g>
	<g>
		<path pointer-events="none" fill="#CE61F4" d="M372,185.5l1,1l-2-1H372z"/>
	</g>
	<g>
		<path pointer-events="none" fill="#021604" d="M374,183.5l3-1l-1,5l-4-2v-2l2-1V183.5z"/>
	</g>
	<g>
		<path pointer-events="none" fill="#424560" d="M429,210.5v2l-1-3l-3,1l-1-6l4,2v3l1-1V210.5z"/>
	</g>
	<g>
		<path pointer-events="none" fill="#EFF665" d="M455,232.5h1H455z"/>
	</g>
	<g>
		<path pointer-events="none" fill="#D05D7A" d="M428,202.5v2h-2l-1-1l2-1H428z"/>
	</g>
	<g>
		<path pointer-events="none" fill="#65FC51" d="M450,214.5l-1,1l-1-2l3,1H450z"/>
	</g>
	<g>
		<path pointer-events="none" fill="#AE8A30" d="M471,168.5h3l3,3l3-1v2l-2,4h-3v5l-1-1l-9,6h-2l2-2l-1-1l-3,3h-2l3,3l3-1l-4,4l4,8
			l-4,7l-10,5l-7-4l-5,3l-3-4l-1,1l1-5l-3-1v-2l-4,2h-7l-7-3l-3-2l1-4l-4-2l-3-6l6-2l3-4l-1-3h2l2-4l2,1l1-3l2-1l4,4v2l5,2l2,3l10,2
			l7-2l1-4l2,1l7-4l-1-2l-3,1l1-3l3-2l2-6h5l3,5V168.5z"/>
	</g>
	<g>
		<path pointer-events="none" fill="#575DCB" d="M357,192.5l2-1L357,192.5z"/>
	</g>
	<g>
		<path pointer-events="none" fill="#ADC3F9" d="M358,192.5h-2H358z"/>
	</g>
	<g>
		<path pointer-events="none" fill="#60D6C1" d="M367,182.5l1-1l-2-2l8,4l-5-1H367z"/>
	</g>
	<g>
		<path pointer-events="none" fill="#99B564" d="M463,250.5l-2-1h2V250.5z"/>
	</g>
	<g>
		<path pointer-events="none" fill="#07DEA2" d="M468,250.5h-2l2-1V250.5z"/>
	</g>
	<g>
		<path pointer-events="none" fill="#CBDFB6" d="M460,247.5l1,1h-2L460,247.5z"/>
	</g>
	<g>
		<path pointer-events="none" fill="#14F80D" d="M466,247.5l-4,1h3L466,247.5z"/>
	</g>
	<g>
		<path pointer-events="none" fill="#52E97E" d="M448,245.5l9,2l-1,1l-12-2l1-2L448,245.5z"/>
	</g>
	<g>
		<path pointer-events="none" fill="#71E415" d="M480,245.5l-1,1l1-2V245.5z"/>
	</g>
	<g>
		<path pointer-events="none" fill="#8F9BD5" d="M471,241.5h-2H471z"/>
	</g>
	<g>
		<path pointer-events="none" fill="#553992" d="M475,241.5h-2H475z"/>
	</g>
	<g>
		<path pointer-events="none" fill="#7C1A81" d="M479,239.5l1,2l3-2l5,1v8l-5-1l1-3l-5-2v-2l-4-2h4V239.5z"/>
	</g>
	<g>
		<path pointer-events="none" fill="#DDB790" d="M468,236.5l-6,2h4l-2,2l2,3l-1,1l-2-4v4h-2l1-7l6-2V236.5z"/>
	</g>
	<g>
		<path pointer-events="none" fill="#D829A3" d="M473,236.5l-2,2v-2l2-1V236.5z"/>
	</g>
	<g>
		<path pointer-events="none" fill="#18A8EF" d="M460,235.5l1,1l-2,1l-1,5l-7-1l-2-3l1-3l5,1l4-4L460,235.5z"/>
	</g>
	<g>
		<path pointer-events="none" fill="#B34209" d="M445,244.5l-4-2l-9-11h3l6,5l4,6V244.5z"/>
	</g>
	<g>
		<path pointer-events="none" fill="#B56C5F" d="M411,191.5l2,2l-1,3l3,3l-1,1l4,3l10,1v-2l3-2l4,2l-3,2l-3,6v-2h-2l2-2l-5-2l1,5
			l-11,10v6l-3,2l-3-4l-3-11h-2l-3-4l3-1l-2-3l4-3l3-5l-2-3h4L411,191.5z"/>
	</g>
	<g>
		<path pointer-events="none" fill="#25571D" d="M382,189.5l4-2l5,4v9l3,3l-2,1v2h-3l-3-3l-3,1l-4-2l-1-3h-2l-4-5l1-2l-2-3v-4h4l5,5
			L382,189.5z"/>
	</g>
	<g>
		<path pointer-events="none" fill="#95ADB7" d="M372,191.5l3,6l-1,4l-10-6l3-2l2-4h2L372,191.5z"/>
	</g>
	<g>
		<path pointer-events="none" fill="#BB09AF" d="M360,195.5l-1,5L360,195.5z"/>
	</g>
	<g>
		<path pointer-events="none" fill="#85CFDA" d="M360,196.5h5l-3,1l1,2l-4,1l1-3V196.5z"/>
	</g>
	<g>
		<path pointer-events="none" fill="#40E814" d="M480,193.5l-1,2h-2l2-2H480z"/>
	</g>
	<g>
		<path pointer-events="none" fill="#201383" d="M487,189.5l-2,4l-10,1l2,1l-2,3l-1-1l1-3l11-7l2-5l1,3l-2,2V189.5z"/>
	</g>
	<g>
		<path pointer-events="none" fill="#B942DE" d="M491,178.5l2-1v2l-3,2l-2-1v2h-2l3-7l1,2L491,178.5z"/>
	</g>
	<g>
		<path pointer-events="none" fill="#3BADAD" d="M403,181.5l-5,2l-2-5l-4,1l-4-4l-3,1l-1,7l-6-5l4-4h-6l-3-4l6-6l12,2v-6l10-3h2v2h3
			v2l4-2l4,7l4-1l5,4l-3,4l-2-1l-1,3l-3,1l1,3l-2,2l-6-2l-4,1V181.5z"/>
	</g>
	<g>
		<path pointer-events="none" fill="#B389A5" d="M403,181.5h3l1-2l7,2l-10,5l-3-2l2,1l2-2h-2V181.5z"/>
	</g>
	<g>
		<path pointer-events="none" fill="#664EF5" d="M442,224.5v-4h4v4l-3,1L442,224.5z"/>
	</g>
	<g>
		<path pointer-events="none" fill="#6DF611" d="M472,187.5l2,4l-3,2l-1-5L472,187.5z"/>
	</g>
	<g>
		<path pointer-events="none" fill="#0F1CDB" d="M361,195.5v-1V195.5z"/>
	</g>
	<g>
		<path pointer-events="none" fill="#BBFC26" d="M375,199.5l1,2h-2v-2H375z"/>
	</g>
	<g>
		<path pointer-events="none" fill="#0489EB" d="M444,220.5l1-1l-2-4l-4,1l1-3l-2-1l3-3l1,3l2,1l-1,1l4,4v2h-2H444z"/>
	</g>
	<g>
		<path pointer-events="none" fill="#891C1A" d="M437,212.5l-2,2l3,9l-2,2l1-2l-2-6l-3,1l-3-6l1-5l1,1l1-4l3-2v6l1-1l3,4l-1,1H437z"
			/>
	</g>
	<g>
		<path pointer-events="none" fill="#16967D" d="M416,228.5l-1,2l-1-5l1,2L416,228.5z"/>
	</g>
	<g>
		<path pointer-events="none" fill="#F7DE5B" d="M423,169.5l6-3l6,2v-3l2-2l5,4h4l3,2l6-2l3,2l-1,2h3l2,2h-3l-5,4l-1-1l-2,3l-7,3
			l-4-2h-5l-5-4h-3v-3l-3-3L423,169.5z"/>
	</g>
	<g>
		<path pointer-events="none" fill="#D781B9" d="M439,230.5l3,1l1,5l-4-3l-1-4L439,230.5z"/>
	</g>
	<g>
		<path pointer-events="none" fill="#00BD2D" d="M460,232.5h-3l-1,4l-6-1l4-1l5-5l1,2V232.5z"/>
	</g>
	<g>
		<path pointer-events="none" fill="#D044B1" d="M424,202.5v2h-3l-7-4l3-1l5,3H424z"/>
	</g>
	<g>
		<path pointer-events="none" fill="#447C7D" d="M388,211.5l-2,4l-5,2l-1-3l4-1l1-6l4,2v2H388z"/>
	</g>
	<g>
		<path pointer-events="none" fill="#2E5A7E" d="M385,205.5v-1V205.5z"/>
	</g>
	<g>
		<path pointer-events="none" fill="#77AF31" d="M408,189.5l3,2l-1,2h-3l1,3l-3,5l-4,3l2,2l-4,2l-2-2h-4l-1-2h2l-3-4h4l3-3h2l3-3v-3
			l4-2H408z"/>
	</g>
	<g>
		<path pointer-events="none" fill="#703C59" d="M470,227.5l-1,3h-2v-2l-2,1l1-2H470z"/>
	</g>
	<g>
		<path pointer-events="none" fill="#C804F5" d="M467,225.5h-2l2-1V225.5z"/>
	</g>
	<g>
		<path pointer-events="none" fill="#94B069" d="M460,226.5l-1,1l3-4l-1,2L460,226.5z"/>
	</g>
	<g>
		<path pointer-events="none" fill="#2BABC7" d="M464,223.5h1H464z"/>
	</g>
	<g>
		<path pointer-events="none" fill="#260878" d="M469,223.5v2l-2-2l1-1L469,223.5z"/>
	</g>
	<g>
		<path pointer-events="none" fill="#A95FA5" d="M464,221.5l-1,1L464,221.5z"/>
	</g>
	<g>
		<path pointer-events="none" fill="#00CAB1" d="M464,215.5v5h3v2l-5-3l1-4H464z"/>
	</g>
	<g>
		<path pointer-events="none" fill="#4890D4" d="M475,181.5l-4,4l1,1l-4,2l1-3h-2l7-5L475,181.5z"/>
	</g>
	<g>
		<path pointer-events="none" fill="#A13D56" d="M379,206.5l1-1l-1,2V206.5z"/>
	</g>
	<g>
		<path pointer-events="none" fill="#0C714A" d="M360,196.5l-1,1L360,196.5z"/>
	</g>
	<g>
		<path pointer-events="none" fill="#494519" d="M369,217.5l-10-15v-2h2l1-3l2-1l12,5l4,8h4v4l-7,1l-3,3H369z"/>
	</g>
	<g>
		<path pointer-events="none" fill="#C35FDE" d="M364,195.5h-4l3-6h5l-1,4L364,195.5z"/>
	</g>
	<g>
		<path pointer-events="none" fill="#6D4CF2" d="M441,222.5l-3-1l-1,3v2l4,4h-2l-3-3l2-4l-3-9l2-2l2,1v2h4l2,3l-1,2l-3,1V222.5z"/>
	</g>
	<g>
		<path pointer-events="none" fill="#CB29E8" d="M403,184.5h-2l3,2l2-1l2,3l-4,2l-1-3l-4,2v-3L403,184.5z"/>
	</g>
	<g>
		<path pointer-events="none" fill="#3C297E" d="M391,191.5l-5-4l-3,2l-2-5l2-1h-2v-2h2l1,2l4-3l2,1v2h2l2,3l4,2l-6,4L391,191.5z"/>
	</g>
	<g>
		<path pointer-events="none" fill="#637A6E" d="M362,182.5h7l2,3v4h-8l-2,2l-2-2l-7,1l-3-3l1-3l10-3L362,182.5z"/>
	</g>
	<g>
		<path pointer-events="none" fill="#12A101" d="M350,183.5l-1,1l1-3l1,2H350z"/>
	</g>
	<g>
		<path pointer-events="none" fill="#9A7A08" d="M468,248.5h3H468z"/>
	</g>
	<g>
		<path pointer-events="none" fill="#F5D2BB" d="M464,207.5l-1,3l-1-1l3-3L464,207.5z"/>
	</g>
	<g>
		<path pointer-events="none" fill="#50423D" d="M398,189.5l-6-6h-2v-2l-2-1l-2,2l-1-6l3-1l4,4l4-1l2,5l4-2l1,2h2h-4L398,189.5z"/>
	</g>
	<g>
		<path pointer-events="none" fill="#0AEC5F" d="M448,211.5l-3,2l4,6v4l-5,4v-2l2-1l-1-1l2-1v-4l-6-8l3-2l3,2L448,211.5z"/>
	</g>
	<g>
		<path pointer-events="none" fill="#7D85EF" d="M381,217.5l-7,4h-5l1-5h4l3-2h3l1,2V217.5z"/>
	</g>
	<g>
		<path pointer-events="none" fill="#BD7888" d="M342,182.5l1,1l-2,2l1-4V182.5z"/>
	</g>
	<g>
		<path pointer-events="none" fill="#7818B9" d="M321,165.5l4,1l-3,2l-2-3H321z"/>
	</g>
	<g>
		<path pointer-events="none" fill="#DFA136" d="M338,171.5l-3,3l-6-2h4l1-3l4,1V171.5z"/>
	</g>
	<g>
		<path pointer-events="none" fill="#83153D" d="M345,178.5l7,1l-4,4l-4-2v-3H345z"/>
	</g>
	<g>
		<path pointer-events="none" fill="#B36C14" d="M340,177.5l1,1l-2,2l-3-3l4-1V177.5z"/>
	</g>
	<g>
		<path pointer-events="none" fill="#812D27" d="M346,160.5l5-5l4,1l-1,2l3,3h-2l1,2l-3,2l-7-1v-3V160.5z"/>
	</g>
	<g>
		<path pointer-events="none" fill="#B25D14" d="M338,170.5l-6-2l1-2h5l2,2L338,170.5z"/>
	</g>
	<g>
		<path pointer-events="none" fill="#C2765A" d="M329,172.5l1,1l-4,2l-1-3l3-1L329,172.5z"/>
	</g>
	<g>
		<path pointer-events="none" fill="#C427CB" d="M329,157.5l2,2h3l1,2v4l-3,2v5h-5v-3h-2l1-8l3-3V157.5z"/>
	</g>
	<g>
		<path pointer-events="none" fill="#B7BA66" d="M333,156.5l-1,2l-2-2l2-1L333,156.5z"/>
	</g>
	<g>
		<path pointer-events="none" fill="#CFA071" d="M330,154.5l-1,4l-2-4l2-2L330,154.5z"/>
	</g>
	<g>
		<path pointer-events="none" fill="#98319C" d="M306,182.5l2-4l7,1l6,3l-4,2l-2,6l-5,1l-2-4l2-5l-3-1L306,182.5z"/>
	</g>
	<g>
		<path pointer-events="none" fill="#1FCC99" d="M347,151.5l-2-3l6-1v4h-3H347z"/>
	</g>
	<g>
		<path pointer-events="none" fill="#8B33AB" d="M254,234.5l-3,1l1-5l3,2l-1,1V234.5z"/>
	</g>
	<g>
		<path pointer-events="none" fill="#A06605" d="M329,181.5l-1,1l1-2V181.5z"/>
	</g>
	<g>
		<path pointer-events="none" fill="#F0D856" d="M322,167.5l5,2l-2,4l1,5l-6,3l-5-1l1-5l-4-4l8-6l1,1L322,167.5z"/>
	</g>
	<g>
		<path pointer-events="none" fill="#8DA68C" d="M352,120.5v7l3,12l-4,6l-6,2l-2-3v-6l5-6l-2-2v-6l-4-4l1-1l4,3l2-4h3V120.5z"/>
	</g>
	<g>
		<path pointer-events="none" fill="#C78A9B" d="M310,158.5v2l-2-2l1-1L310,158.5z"/>
	</g>
	<g>
		<path pointer-events="none" fill="#26DD9A" d="M314,149.5l-2,3l3,1l-1,2l5,7l-1,4l-7,1l1-6h2l-1-3h-2l1-2l-1,1l-1-2v-4l1-2l1,1
			L314,149.5z"/>
	</g>
	<g>
		<path pointer-events="none" fill="#7F7DC2" d="M340,175.5v2h-4l4,4l-6-5h2v-2L340,175.5z"/>
	</g>
	<g>
		<path pointer-events="none" fill="#E091EB" d="M337,173.5l5-3l3,1l-5,4L337,173.5z"/>
	</g>
	<g>
		<path pointer-events="none" fill="#1597AF" d="M310,160.5l-1,3l-4,1l3-7l1,2L310,160.5z"/>
	</g>
	<g>
		<path pointer-events="none" fill="#6EAA6A" d="M300,129.5l1,4l-5,4l-6-1l1-1l-3-2h3l-3-2l1-2h2l1,2l2-2h4H300z"/>
	</g>
	<g>
		<path pointer-events="none" fill="#5184F0" d="M346,191.5l3,1h-3V191.5z"/>
	</g>
	<g>
		<path pointer-events="none" fill="#9436D4" d="M349,182.5l-3,1v2l-1-1l1,5h-3l-1-5L349,182.5z"/>
	</g>
	<g>
		<path pointer-events="none" fill="#1B8A0A" d="M336,187.5v2l-4-1l3-1H336z"/>
	</g>
	<g>
		<path pointer-events="none" fill="#E08F99" d="M328,183.5l1,3h-2L328,183.5z"/>
	</g>
	<g>
		<path pointer-events="none" fill="#AC23F6" d="M332,173.5l2,1l-2,4l7,6l-2,1v3v-2l-7-6v-2l-2-1l-2,2l-1-3l2-2l1,1L332,173.5z"/>
	</g>
	<g>
		<path pointer-events="none" fill="#0AA08C" d="M342,181.5v-2l1,2H342z"/>
	</g>
	<g>
		<path pointer-events="none" fill="#042585" d="M325,167.5h-1H325z"/>
	</g>
	<g>
		<path pointer-events="none" fill="#AC80FC" d="M345,159.5l-2-4h5l1,1l-2,4L345,159.5z"/>
	</g>
	<g>
		<path pointer-events="none" fill="#2C360B" d="M343,155.5l1-4l1,2l2-2l4,2l-1,3l-6-1H343z"/>
	</g>
	<g>
		<path pointer-events="none" fill="#CF6A05" d="M349,171.5l1-1l4,4l-3,1l-1-4H349z"/>
	</g>
	<g>
		<path pointer-events="none" fill="#3BE2AE" d="M342,182.5l3-1v2L342,182.5z"/>
	</g>
	<g>
		<path pointer-events="none" fill="#711090" d="M341,181.5l-1-1h2L341,181.5z"/>
	</g>
	<g>
		<path pointer-events="none" fill="#89278A" d="M325,161.5v5l-3-1l1-4H325z"/>
	</g>
	<g>
		<path pointer-events="none" fill="#B4A3F3" d="M351,113.5l4,3v3l-2,1l-2-3l-4,5l-4-3l-2,4l-2-1l-5,14h-2l1,7l-2,5l-1-1l-4,4l-2-1
			l-1-9l7-6l10-17l3-2l2,1l2-3h2L351,113.5z"/>
	</g>
	<g>
		<path pointer-events="none" fill="#B4B6B8" d="M347,82.5l-3,3l-2-2v-3l3-1v2L347,82.5z"/>
	</g>
	<g>
		<path pointer-events="none" fill="#C8C6F3" d="M339,71.5l4,5l-3,2l-2,10l-4-3l1-2l-2-2l-3-10l3-2l1,2h2v-2l2-1L339,71.5z"/>
	</g>
	<g>
		<path pointer-events="none" fill="#01AF41" d="M348,66.5l2,2l-1,4h-7l-4-5l4-2l2,1l1-2L348,66.5z"/>
	</g>
	<g>
		<path pointer-events="none" fill="#1374F2" d="M306,182.5h4l-2,7l-2-2V182.5z"/>
	</g>
	<g>
		<path pointer-events="none" fill="#C31C9B" d="M345,171.5l6,1l1,7l-8-2l-2-2l2-3L345,171.5z"/>
	</g>
	<g>
		<path pointer-events="none" fill="#01A9BF" d="M335,165.5l-1-5l3-2l9,2v6l-2,2l1,1h-4l-3-3h-2L335,165.5z"/>
	</g>
	<g>
		<path pointer-events="none" fill="#634141" d="M342,176.5l3,1v4l-4-2l-1-4h2V176.5z"/>
	</g>
	<g>
		<path pointer-events="none" fill="#C50CF2" d="M340,168.5l5,1l-6,3l-1-1L340,168.5z"/>
	</g>
	<g>
		<path pointer-events="none" fill="#667ED1" d="M334,174.5h3l-2,2l-1-1V174.5z"/>
	</g>
	<g>
		<path pointer-events="none" fill="#D725E4" d="M344,131.5l-1,4l-4,4l-1,4l2,3l-6,11l-3-8l2-6l-1-7h2l3-10l2-4l2,1v-3l5,4v6
			L344,131.5z"/>
	</g>
	<g>
		<path pointer-events="none" fill="#C887EC" d="M356,163.5h2l5,5h3l-8,9l-2-1v-2h-2l-1,2l-2-1l3-1l-4-4l-3,2l-3-2l2-6l8,1l1-2H356z
			"/>
	</g>
	<g>
		<path pointer-events="none" fill="#F06812" d="M491,166.5l1,3h-2l-1,2l2,2l-2,2l-1-14l2-2v5L491,166.5z"/>
	</g>
	<g>
		<path pointer-events="none" fill="#C465F5" d="M345,159.5h-4l2-2l2,1V159.5z"/>
	</g>
	<g>
		<path pointer-events="none" fill="#98C68A" d="M106,128.5l1,1v-2h3l2,3l-1,2h-2v3l-8-4l1-1l-2,1v2v-12l6,6V128.5z"/>
	</g>
	<g>
		<path pointer-events="none" fill="#2C2729" d="M535,114.5h-2l2-2V114.5z"/>
	</g>
	<g>
		<path pointer-events="none" fill="#ED973C" d="M102,114.5h-2v-2l3,1L102,114.5z"/>
	</g>
	<g>
		<path pointer-events="none" fill="#06C7C4" d="M491,105.5h-5l3-3l2,2V105.5z"/>
	</g>
	<g>
		<path pointer-events="none" fill="#9CF500" d="M499,97.5l-3,1l-2-2l2-1L499,97.5z"/>
	</g>
	<g>
		<path pointer-events="none" fill="#AD4EE9" d="M492,94.5l-1,4l-6,1l-2-3v-4h5L492,94.5z"/>
	</g>
	<g>
		<path pointer-events="none" fill="#966533" d="M387,115.5h-5v-2l-3-3l2-1l4-10l-1-2l7-6l9-4v4l-12,9l-4,8v4L387,115.5z"/>
	</g>
	<g>
		<path pointer-events="none" fill="#5AEC82" d="M446,87.5l1,3l4-1l4,4v3l-6,5l4,1l1,2l7-1v2l5,1v-3h5l2,3l-1,4l4,4l1-4l2,2h7l-1-4
			l2-2l11,3l4,5h7l1,4l2,1h8l2,3l2-1l-1-3l10,1l2,2v12l-4,1l3,5l-20,9v7l-7,10l-2-8l1-3l10-14h-2v2l-3,3l-1-3l-4,1l-3,4l1,1l-2,1h-2
			v-2l-11,1l-9,10h2l1,2l2-1l3,2v2l-3,10l-6,7h-4v-4l4-2l1-4l-5,1l-1-3h-3l-3-7h-5l-3,7l-4-1l-7,2l-3-2h-4l-5-4l-2,2v3l-6-2l-6,3
			l-5-4l-4,1l-4-7l-4,2v-2h-2l-1-2l-12,3v6h-6l-5-2l-4,2v2l-1-1l-2,3l4,4l-3,3l2,5l-1,1l-4-3l-7-2l-2-2l3-3h-2l3-4l-11-7v-5l-4-2
			l-1-3l2-6l-1-1l4-5l-2-7l1-2l-2-4v-7l4-2l10,6v5l-2,1l-6-2l1,7l2,1l1-3l3,1v-2l3-3l2,1v-8l3,1v5h2v-2l7-5l1,3l5-3l2,2v-4h4l6,5
			l1-2l-3-3v-4l3-9l4,1l-1,5l2,13l-3,4l2,1l3-5v-4l-2-1v-8l2-3l-1-2l1-1l1,7v-3l2-1l5,2l-2-8l8-1l-1-2l5-6l4-2l4,1l3-3h2l1-5l3-2
			l2,2l-1,1L446,87.5z"/>
	</g>
	<g>
		<path pointer-events="none" fill="#36335F" d="M444,80.5l-7,2l4-9l4,4L444,80.5z"/>
	</g>
	<g>
		<path pointer-events="none" fill="#EDA526" d="M379,65.5l-4,4l-2-2l1-2h-3l3-2h2v2l2-3l1,2V65.5z"/>
	</g>
	<g>
		<path pointer-events="none" fill="#B5100F" d="M438,76.5l-3,1l-3-2l-5-9l6-6l5,10V76.5z"/>
	</g>
	<g>
		<path pointer-events="none" fill="#79AF55" d="M493,291.5h3l-1,5l-3-5H493z"/>
	</g>
	<g>
		<path pointer-events="none" fill="#0C4BC0" d="M491,254.5l2,2l1,5l8,8l1,4l-5,14l-4,2l-2-2l-3,1l-3-2v-2l-4-1l2-3l-3,2l-5-5l-5,2
			l-1-1l-10,5l-4-2l1-3l-3-7l1-7l9-3l4-6l3-1l3,2v-2l3-3l6,1l-2,4l4,3l3-1l1-7L491,254.5z"/>
	</g>
	<g>
		<path pointer-events="none" fill="#881E1D" d="M533,259.5h-1H533z"/>
	</g>
	<g>
		<path pointer-events="none" fill="#16BFB7" d="M534,258.5h1H534z"/>
	</g>
	<g>
		<path pointer-events="none" fill="#8732DF" d="M100,257.5L100,257.5z"/>
	</g>
	<g>
		<path pointer-events="none" fill="#DD13CE" d="M517,263.5l2,2l-4-3L517,263.5z"/>
	</g>
	<g>
		<path pointer-events="none" fill="#F0F0CF" d="M526,292.5h2l-5,8h-5l8-9V292.5z"/>
	</g>
	<g>
		<path pointer-events="none" fill="#27EDD4" d="M528,284.5l5,4l-4,5l-2-4l1-3l-2-3h2V284.5z"/>
	</g>
	<g>
		<path pointer-events="none" fill="#5941D1" d="M505,246.5l-1-2l2,1L505,246.5z"/>
	</g>
	<g>
		<path pointer-events="none" fill="#315E31" d="M501,244.5h-5l4-2l1,1V244.5z"/>
	</g>
	<g>
		<path pointer-events="none" fill="#42A9F1" d="M495,246.5l4,4l-7-3h-2l-1,2l-1-9l7,5V246.5z"/>
	</g>
	<g>
		<path pointer-events="none" fill="#BD9FE2" d="M502,243.5l-2-2l2,1V243.5z"/>
	</g>
	<g>
		<path pointer-events="none" fill="#C26D25" d="M513,250.5L513,250.5z"/>
	</g>
	<g>
		<path pointer-events="none" fill="#B01C98" d="M511,249.5L511,249.5z"/>
	</g>
	<g>
		<path pointer-events="none" fill="#2F0659" d="M512,249.5v-1V249.5z"/>
	</g>
	<g>
		<path pointer-events="none" fill="#555A6F" d="M510,247.5l-2-1L510,247.5z"/>
	</g>
	<g>
		<path pointer-events="none" fill="#DBBC67" d="M507,246.5l-1-1L507,246.5z"/>
	</g>
	<g>
		<path pointer-events="none" fill="#0F5DD1" d="M520,257.5h-1H520z"/>
	</g>
	<g>
		<path pointer-events="none" fill="#AF263E" d="M519,256.5l-1-1L519,256.5z"/>
	</g>
</g>
</svg>
